<?xml version="1.0" encoding="UTF-8" standalone="no"?>
<!-- Created with Inkscape (http://www.inkscape.org/) -->

<svg
   xmlns:dc="http://purl.org/dc/elements/1.1/"
   xmlns:cc="http://creativecommons.org/ns#"
   xmlns:rdf="http://www.w3.org/1999/02/22-rdf-syntax-ns#"
   xmlns:svg="http://www.w3.org/2000/svg"
   xmlns="http://www.w3.org/2000/svg"
   xmlns:sodipodi="http://sodipodi.sourceforge.net/DTD/sodipodi-0.dtd"
   xmlns:inkscape="http://www.inkscape.org/namespaces/inkscape"
   inkscape:version="0.48.4 r9939"
   version="1.1"
   id="svg2"
   height="297mm"
   width="210mm"
   sodipodi:docname="Neues Dokument 1">
  <sodipodi:namedview
     id="base"
     pagecolor="#ffffff"
     bordercolor="#666666"
     borderopacity="1.0"
     inkscape:pageopacity="0.0"
     inkscape:pageshadow="2"
     inkscape:zoom="0.7"
     inkscape:cx="381.40834"
     inkscape:cy="875.90039"
     inkscape:document-units="px"
     inkscape:current-layer="layer1"
     showgrid="false"
     inkscape:window-width="1440"
     inkscape:window-height="818"
     inkscape:window-x="0"
     inkscape:window-y="25"
     inkscape:window-maximized="1" />
  <defs
     id="defs4" />
  <metadata
     id="metadata7">
    <rdf:RDF>
      <cc:Work
         rdf:about="">
        <dc:format>image/svg+xml</dc:format>
        <dc:type
           rdf:resource="http://purl.org/dc/dcmitype/StillImage" />
        <dc:title></dc:title>
      </cc:Work>
    </rdf:RDF>
  </metadata>
  <g
     id="layer1"
     inkscape:groupmode="layer"
     inkscape:label="Ebene 1">
    <path
       id="path2985"
       d="m 121.75928,214.64986 c 5.92358,26.8268 28.61877,33.41001 58.04787,37.67151 l 377.33571,0 c 35.37112,-4.10862 60.99044,-15.44078 70.68181,-38.57143"
       style="fill:none;stroke:#000000;stroke-width:1px;stroke-linecap:butt;stroke-linejoin:miter;stroke-opacity:1"
       inkscape:export-filename="/home/philip/path6988.png"
       inkscape:export-xdpi="90"
       inkscape:export-ydpi="90" />
    <path
       id="rect2987"
       d="m 110,93.076469 12.14286,0 0,25.000001 -12.14286,0 z"
       style="fill:none;fill-opacity:1;stroke:#000000;stroke-opacity:1;stroke-linejoin:round" />
    <path
       id="path6988"
       d="m 137.15015,238.60446 c 0,0 -7.01228,9.91199 -7.01228,9.91199 0,0 -18.84032,-25.10146 -18.84032,-25.10146 0,0 11.43545,-4.07983 11.43545,-4.07983 0,0 14.41715,19.2693 14.41715,19.2693 m 12.40903,6.18666 c 0,0 -4.05244,11.44622 -4.05244,11.44622 0,0 -25.63493,-17.1406 -25.63493,-17.1406 0,0 9.41308,-7.66824 9.41308,-7.66824 0,0 20.27429,13.36262 20.27429,13.36262 m 13.51958,3.77323 c 0,0 -2.38771,11.90532 -2.38771,11.90532 0,0 -26.96827,-9.67368 -26.96827,-9.67368 0,0 6.06369,-10.51938 6.06369,-10.51938 0,0 23.29229,8.28774 23.29229,8.28774 m 13.93156,2.46412 c 0,0 -1.83391,12.00344 -1.83391,12.00344 0,0 -26.3211,-5.65878 -26.3211,-5.65878 0,0 3.7266,-11.55649 3.7266,-11.55649 0,0 24.42841,5.21183 24.42841,5.21183 m 14.02059,0.22147 c 0,0 0,12.14286 0,12.14286 0,0 -27.18017,-2.28943 -27.18017,-2.28943 0,0 2.38772,-11.90532 2.38772,-11.90532 0,0 24.79245,2.05189 24.79245,2.05189 m 14.20019,0 c 0,0 0,12.14286 0,12.14286 0,0 -25.17763,0 -25.17763,0 0,0 0,-12.14286 0,-12.14286 0,0 25.17763,0 25.17763,0 m 14.20018,0 c 0,0 0,12.14286 0,12.14286 0,0 -25.17763,0 -25.17763,0 0,0 0,-12.14286 0,-12.14286 0,0 25.17763,0 25.17763,0 m 14.20018,0 c 0,0 0,12.14286 0,12.14286 0,0 -25.17763,0 -25.17763,0 0,0 0,-12.14286 0,-12.14286 0,0 25.17763,0 25.17763,0 m 14.20018,0 c 0,0 0,12.14286 0,12.14286 0,0 -25.17762,0 -25.17762,0 0,0 0,-12.14286 0,-12.14286 0,0 25.17762,0 25.17762,0 m 14.20019,0 c 0,0 0,12.14286 0,12.14286 0,0 -25.17763,0 -25.17763,0 0,0 0,-12.14286 0,-12.14286 0,0 25.17763,0 25.17763,0 m 14.20018,0 c 0,0 0,12.14286 0,12.14286 0,0 -25.17763,0 -25.17763,0 0,0 0,-12.14286 0,-12.14286 0,0 25.17763,0 25.17763,0 m 14.20018,0 c 0,0 0,12.14286 0,12.14286 0,0 -25.17763,0 -25.17763,0 0,0 0,-12.14286 0,-12.14286 0,0 25.17763,0 25.17763,0 m 14.20018,0 c 0,0 0,12.14286 0,12.14286 0,0 -25.17762,0 -25.17762,0 0,0 0,-12.14286 0,-12.14286 0,0 25.17762,0 25.17762,0 m 14.20019,0 c 0,0 0,12.14286 0,12.14286 0,0 -25.17763,0 -25.17763,0 0,0 0,-12.14286 0,-12.14286 0,0 25.17763,0 25.17763,0 m 14.20018,0 c 0,0 0,12.14286 0,12.14286 0,0 -25.17763,0 -25.17763,0 0,0 0,-12.14286 0,-12.14286 0,0 25.17763,0 25.17763,0 m 14.20018,0 c 0,0 0,12.14286 0,12.14286 0,0 -25.17763,0 -25.17763,0 0,0 0,-12.14286 0,-12.14286 0,0 25.17763,0 25.17763,0 m 14.20018,0 c 0,0 0,12.14286 0,12.14286 0,0 -25.17762,0 -25.17762,0 0,0 0,-12.14286 0,-12.14286 0,0 25.17762,0 25.17762,0 m 14.20019,0 c 0,0 0,12.14286 0,12.14286 0,0 -25.17763,0 -25.17763,0 0,0 0,-12.14286 0,-12.14286 0,0 25.17763,0 25.17763,0 m 14.20018,0 c 0,0 0,12.14286 0,12.14286 0,0 -25.17763,0 -25.17763,0 0,0 0,-12.14286 0,-12.14286 0,0 25.17763,0 25.17763,0 m 14.20018,0 c 0,0 0,12.14286 0,12.14286 0,0 -25.17763,0 -25.17763,0 0,0 0,-12.14286 0,-12.14286 0,0 25.17763,0 25.17763,0 m 14.20018,0 c 0,0 0,12.14286 0,12.14286 0,0 -25.17762,0 -25.17762,0 0,0 0,-12.14286 0,-12.14286 0,0 25.17762,0 25.17762,0 m 14.20019,0 c 0,0 0,12.14286 0,12.14286 0,0 -25.17763,0 -25.17763,0 0,0 0,-12.14286 0,-12.14286 0,0 25.17763,0 25.17763,0 m 14.20018,0 c 0,0 0,12.14286 0,12.14286 0,0 -25.17763,0 -25.17763,0 0,0 0,-12.14286 0,-12.14286 0,0 25.17763,0 25.17763,0 m 14.20018,0 c 0,0 0,12.14286 0,12.14286 0,0 -25.17763,0 -25.17763,0 0,0 0,-12.14286 0,-12.14286 0,0 25.17763,0 25.17763,0 m 14.20018,0 c 0,0 0,12.14286 0,12.14286 0,0 -25.17762,0 -25.17762,0 0,0 0,-12.14286 0,-12.14286 0,0 25.17762,0 25.17762,0 m 14.20019,0 c 0,0 0,12.14286 0,12.14286 0,0 -25.17763,0 -25.17763,0 0,0 0,-12.14286 0,-12.14286 0,0 25.17763,0 25.17763,0 m 14.20018,0 c 0,0 0,12.14286 0,12.14286 0,0 -25.17763,0 -25.17763,0 0,0 0,-12.14286 0,-12.14286 0,0 25.17763,0 25.17763,0 m 14.20018,0 c 0,0 0,12.14286 0,12.14286 0,0 -25.17763,0 -25.17763,0 0,0 0,-12.14286 0,-12.14286 0,0 25.17763,0 25.17763,0 m 14.20018,0 c 0,0 0,12.14286 0,12.14286 0,0 -25.17762,0 -25.17762,0 0,0 0,-12.14286 0,-12.14286 0,0 25.17762,0 25.17762,0 m 14.20019,0 c 0,0 0,12.14286 0,12.14286 0,0 -25.17763,0 -25.17763,0 0,0 0,-12.14286 0,-12.14286 0,0 25.17763,0 25.17763,0 m 14.02192,-0.57978 c 0,0 1.58171,12.03892 1.58171,12.03892 0,0 -26.58108,0.68372 -26.58108,0.68372 0,0 0,-12.14286 0,-12.14286 0,0 24.99937,-0.57978 24.99937,-0.57978 m 13.91186,-2.42957 c 0,0 2.39727,11.90314 2.39727,11.90314 0,0 -27.10832,3.24907 -27.10832,3.24907 0,0 0,-12.14286 0,-12.14286 0,0 24.71105,-3.00935 24.71105,-3.00935 m 13.56358,-3.71743 c 0,0 3.80557,11.53079 3.80557,11.53079 0,0 -26.15603,6.14553 -26.15603,6.14553 0,0 -1.9696,-11.98146 -1.9696,-11.98146 0,0 24.32006,-5.69486 24.32006,-5.69486 m 12.89829,-5.43462 c 0,0 5.76649,10.68562 5.76649,10.68562 0,0 -26.26722,9.52705 -26.26722,9.52705 0,0 -2.86822,-11.79834 -2.86822,-11.79834 0,0 23.36895,-8.41433 23.36895,-8.41433 m 11.63547,-7.72842 c 0,0 7.67248,9.41067 7.67248,9.41067 0,0 -25.09224,14.11745 -25.09224,14.11745 0,0 -4.10144,-11.42885 -4.10144,-11.42885 0,0 21.5212,-12.09927 21.5212,-12.09927 m 9.2072,-10.29195 c 0,0 10.24592,6.51469 10.24592,6.51469 0,0 -22.16848,20.44284 -22.16848,20.44284 0,0 -6.13332,-10.47931 -6.13332,-10.47931 0,0 18.05588,-16.47822 18.05588,-16.47822 m 6.28342,-12.53549 c 0,0 11.08252,4.95965 11.08252,4.95965 0,0 -15.799,24.48286 -15.799,24.48286 0,0 -8.454,-8.71519 -8.454,-8.71519 0,0 13.17048,-20.72732 13.17048,-20.72732"
       style="fill:none;stroke:#000000;stroke-linejoin:round;stroke-opacity:1"
       inkscape:connector-curvature="0"
       inkscape:export-xdpi="90"
       inkscape:export-ydpi="90" />
  </g>
</svg>
