<?xml version="1.0" encoding="UTF-8" standalone="no"?>
<!-- Created with Inkscape (http://www.inkscape.org/) -->

<svg
   xmlns:dc="http://purl.org/dc/elements/1.1/"
   xmlns:cc="http://creativecommons.org/ns#"
   xmlns:rdf="http://www.w3.org/1999/02/22-rdf-syntax-ns#"
   xmlns:svg="http://www.w3.org/2000/svg"
   xmlns="http://www.w3.org/2000/svg"
   xmlns:xlink="http://www.w3.org/1999/xlink"
   xmlns:sodipodi="http://sodipodi.sourceforge.net/DTD/sodipodi-0.dtd"
   xmlns:inkscape="http://www.inkscape.org/namespaces/inkscape"
   width="640"
   height="480"
   id="svg2"
   version="1.1"
   inkscape:version="0.48.4 r9939"
   sodipodi:docname="PDA_glove.svg"
   inkscape:export-filename="/home/philip/programming/Dr_mad_daemon/data/img/inProgress/PDA_glovetest.png"
   inkscape:export-xdpi="90"
   inkscape:export-ydpi="90">
  <defs
     id="defs4">
    <linearGradient
       id="linearGradient3786">
      <stop
         style="stop-color:#292526;stop-opacity:1;"
         offset="0"
         id="stop3788" />
      <stop
         style="stop-color:#000000;stop-opacity:0.62869197;"
         offset="1"
         id="stop3790" />
    </linearGradient>
    <linearGradient
       inkscape:collect="always"
       xlink:href="#linearGradient3786"
       id="linearGradient3796"
       x1="-104.78571"
       y1="336.96945"
       x2="912.07471"
       y2="336.96945"
       gradientUnits="userSpaceOnUse"
       gradientTransform="matrix(0.78663661,0,0,1.0002061,82.565873,-52.069468)" />
  </defs>
  <sodipodi:namedview
     id="base"
     pagecolor="#ff00ff"
     bordercolor="#666666"
     borderopacity="1.0"
     inkscape:pageopacity="0"
     inkscape:pageshadow="2"
     inkscape:zoom="0.49497475"
     inkscape:cx="80.366911"
     inkscape:cy="77.978157"
     inkscape:document-units="px"
     inkscape:current-layer="layer1"
     showgrid="false"
     showguides="true"
     inkscape:guide-bbox="true"
     inkscape:window-width="1438"
     inkscape:window-height="817"
     inkscape:window-x="0"
     inkscape:window-y="25"
     inkscape:window-maximized="0" />
  <metadata
     id="metadata7">
    <rdf:RDF>
      <cc:Work
         rdf:about="">
        <dc:format>image/svg+xml</dc:format>
        <dc:type
           rdf:resource="http://purl.org/dc/dcmitype/StillImage" />
        <dc:title />
      </cc:Work>
    </rdf:RDF>
  </metadata>
  <g
     inkscape:groupmode="layer"
     id="layer2"
     inkscape:label="hand">
    <path
       style="fill:url(#linearGradient3796);fill-opacity:1;stroke:#000000;stroke-width:0.88701683px;stroke-linecap:butt;stroke-linejoin:miter;stroke-opacity:1"
       d="M 3.9022125,96.532589 98.298604,93.674861 221.91293,86.530528 C 289.627,88.104312 329.71972,58.347269 391.60168,33.662486 460.00101,39.525147 472.0571,0.39067362 572.52809,13.658368 l 37.08431,21.432984 c 33.43228,15.912874 77.08343,27.288078 70.79729,52.868041 -9.67955,15.494277 31.8716,17.598097 56.18832,36.558657 10.5273,17.78548 11.23767,17.43907 11.23767,37.74236 l -2.24754,8.5732 -2.24753,7.14434 c 28.27527,14.01783 48.66558,19.03972 55.06456,54.2969 4.17145,27.39231 -4.12543,30.98881 -20.2278,47.15258 14.10209,21.78453 22.56395,41.44187 21.35157,65.72783 -3.38538,22.61189 0.99974,25.21658 -35.00618,40.00825 l -17.40184,5.64367 c -7.66897,4.23912 -14.70218,4.63833 -22.80446,4.35839 l -21.03413,8.83323 c -10.19074,2.68571 -20.47584,4.70937 -30.73901,6.88429 l -35.96054,1.42887 c -5.32525,-2.86896 -5.65226,-9.1397 -10.15409,-10.50169 -19.07804,-5.77191 -36.89937,3.91619 -58.39566,0.49963 l -12.36143,0 c -14.78558,7.21863 0.85554,13.84805 8.99013,21.43299 l 20.2278,11.43093 26.9704,10.00207 c 16.31723,-4.43643 25.80206,21.88789 34.83676,-1.42887 l 13.48519,-10.00206 15.73274,-11.43094 c 26.95732,-19.80725 49.83547,-34.26636 61.80716,-11.43093 l -11.23766,32.86393 -25.84663,42.86597 -12.36144,44.29484 c -6.69786,48.65445 -44.28948,20.45225 -82.03496,15.71753 l -43.82689,-10.00206 -19.10404,0 -33.71299,-10.00206 -25.84664,-12.85978 -31.46545,-21.43301 -38.20806,-25.71958 -44.95068,-27.14846 -19.10403,-15.71752 -24.72286,-20.00412 -31.46546,-22.86186 -51.69326,0 -77.5399,1.42887 -62.93093,-2.85773 -101.13898301,-4.2866 z"
       id="path3006"
       inkscape:connector-curvature="0"
       sodipodi:nodetypes="ccccccccccccccccccccscccccccccccccccccccccccccccc"
       inkscape:export-filename="/run/media/philip/da4273c5-2f12-470a-9947-c788b067eb8f/programming/Dr_mad_daemon/data/img/PDA/clock2.png"
       inkscape:export-xdpi="90"
       inkscape:export-ydpi="90" />
    <path
       style="fill:none;stroke:#000000;stroke-width:0.93852735px;stroke-linecap:butt;stroke-linejoin:miter;stroke-opacity:1"
       d="M 673.63183,92.264097 619.52956,73.690594 576.75101,52.25961"
       id="path3008"
       inkscape:connector-curvature="0"
       inkscape:export-filename="/run/media/philip/da4273c5-2f12-470a-9947-c788b067eb8f/programming/Dr_mad_daemon/data/img/PDA/clock2.png"
       inkscape:export-xdpi="90"
       inkscape:export-ydpi="90" />
    <path
       style="fill:none;stroke:#000000;stroke-width:0.78146166px;stroke-linecap:butt;stroke-linejoin:miter;stroke-opacity:1"
       d="M 741.65276,175.20907 706.08375,159.40663 679.19011,146.47737"
       id="path3010"
       inkscape:connector-curvature="0"
       inkscape:export-filename="/run/media/philip/da4273c5-2f12-470a-9947-c788b067eb8f/programming/Dr_mad_daemon/data/img/PDA/clock2.png"
       inkscape:export-xdpi="90"
       inkscape:export-ydpi="90" />
    <path
       style="fill:none;stroke:#000000;stroke-width:0.83306158px;stroke-linecap:butt;stroke-linejoin:miter;stroke-opacity:1"
       d="M 781.88912,279.48068 687.26113,260.80171"
       id="path3012"
       inkscape:connector-curvature="0"
       inkscape:export-filename="/run/media/philip/da4273c5-2f12-470a-9947-c788b067eb8f/programming/Dr_mad_daemon/data/img/PDA/clock2.png"
       inkscape:export-xdpi="90"
       inkscape:export-ydpi="90" />
    <path
       style="fill:none;stroke:#000000;stroke-width:0.93852735px;stroke-linecap:butt;stroke-linejoin:miter;stroke-opacity:1"
       d="m 721.44315,396.58395 -26.42205,-7.14366 -6.29095,-10.00112"
       id="path3014"
       inkscape:connector-curvature="0"
       inkscape:export-filename="/run/media/philip/da4273c5-2f12-470a-9947-c788b067eb8f/programming/Dr_mad_daemon/data/img/PDA/clock2.png"
       inkscape:export-xdpi="90"
       inkscape:export-ydpi="90" />
    <path
       style="fill:none;stroke:#000000;stroke-width:0.93852735px;stroke-linecap:butt;stroke-linejoin:miter;stroke-opacity:1"
       d="m 743.58255,383.81203 c -32.00125,-7.55625 -49.37896,-7.31372 -80.01625,-1.5154 l -54.10228,21.43098"
       id="path3016"
       inkscape:connector-curvature="0"
       sodipodi:nodetypes="ccc"
       inkscape:export-filename="/run/media/philip/da4273c5-2f12-470a-9947-c788b067eb8f/programming/Dr_mad_daemon/data/img/PDA/clock2.png"
       inkscape:export-xdpi="90"
       inkscape:export-ydpi="90" />
  </g>
  <g
     inkscape:label="Ebene 1"
     inkscape:groupmode="layer"
     id="layer1"
     transform="translate(0,-572.36218)">
    <rect
       style="fill:#1a1a1a"
       id="rect3122"
       width="270"
       height="180"
       x="348"
       y="710.36218"
       inkscape:export-filename="/run/media/philip/da4273c5-2f12-470a-9947-c788b067eb8f/programming/Dr_mad_daemon/data/img/PDA/glove2.png"
       inkscape:export-xdpi="90"
       inkscape:export-ydpi="90" />
    <path
       style="fill:#cccccc"
       d="m 105.34177,651.68706 113.92405,0 c 75.96205,0 83.73417,7.43227 83.73417,81.75513 l 0,11.14842 15.00001,9.86383 0,80.74581 -15.00001,9.7262 0,11.14843 0,81.75516 c 0,7.1439 -3.45162,11.14846 -11.24999,11.14846 l -262.49322,0 C 21.797467,948.9785 18,945.30817 18,938.36092 l 0,-205.71347 c 0,-73.61987 7.594935,-80.96039 87.34177,-80.96039 z"
       id="rect2985"
       inkscape:connector-curvature="0"
       sodipodi:nodetypes="cccccccccccccc"
       inkscape:export-filename="/run/media/philip/da4273c5-2f12-470a-9947-c788b067eb8f/programming/Dr_mad_daemon/data/img/PDA/clock2.png"
       inkscape:export-xdpi="90"
       inkscape:export-ydpi="90" />
    <path
       style="fill:#666666"
       d="m 302.98219,748.8033 11.25,7.34055 0,36.70262 -11.25,0 z"
       id="rect2994"
       inkscape:connector-curvature="0"
       sodipodi:nodetypes="ccccc"
       inkscape:export-filename="/run/media/philip/da4273c5-2f12-470a-9947-c788b067eb8f/programming/Dr_mad_daemon/data/img/PDA/clock2.png"
       inkscape:export-xdpi="90"
       inkscape:export-ydpi="90" />
    <path
       style="fill:#666666"
       d="m 302.91901,796.49119 11.24999,0 0,36.70265 -11.24999,7.34053 z"
       id="rect2994-3"
       inkscape:connector-curvature="0"
       sodipodi:nodetypes="ccccc"
       inkscape:export-filename="/run/media/philip/da4273c5-2f12-470a-9947-c788b067eb8f/programming/Dr_mad_daemon/data/img/PDA/clock2.png"
       inkscape:export-xdpi="90"
       inkscape:export-ydpi="90" />
    <path
       style="fill:#241c1c"
       d="m 143.61886,600.3622 37.33335,0 c 37.33332,0 29.86665,11.04225 37.33332,51.53052 l -112,0 c 7.46667,-40.48827 0,-51.53052 37.33333,-51.53052 z"
       id="rect3016"
       inkscape:connector-curvature="0"
       sodipodi:nodetypes="ccccc"
       inkscape:export-filename="/run/media/philip/da4273c5-2f12-470a-9947-c788b067eb8f/programming/Dr_mad_daemon/data/img/PDA/clock2.png"
       inkscape:export-xdpi="90"
       inkscape:export-ydpi="90" />
    <path
       style="fill:#241c1c"
       d="m 181.41668,1000.3622 -37.33335,0 c -37.33333,0 -29.86666,-11.0423 -37.33333,-51.5305 l 112,0 c -7.46667,40.4882 0,51.5305 -37.33332,51.5305 z"
       id="rect3016-7"
       inkscape:connector-curvature="0"
       sodipodi:nodetypes="ccccc"
       inkscape:export-filename="/run/media/philip/da4273c5-2f12-470a-9947-c788b067eb8f/programming/Dr_mad_daemon/data/img/PDA/clock2.png"
       inkscape:export-xdpi="90"
       inkscape:export-ydpi="90" />
    <rect
       style="fill:#000000;display:inline"
       id="rect3041"
       width="250"
       height="230"
       x="34"
       y="706.35938"
       inkscape:export-filename="/run/media/philip/da4273c5-2f12-470a-9947-c788b067eb8f/programming/Dr_mad_daemon/data/img/PDA/clock2.png"
       inkscape:export-xdpi="90"
       inkscape:export-ydpi="90" />
    <text
       xml:space="preserve"
       style="font-size:29.67933846px;font-style:normal;font-weight:normal;line-height:125%;letter-spacing:0px;word-spacing:0px;fill:#803300;fill-opacity:1;stroke:none;font-family:Sans"
       x="54.906769"
       y="699.53723"
       id="text3043"
       sodipodi:linespacing="125%"
       transform="scale(1.0108041,0.98931138)"
       inkscape:export-filename="/run/media/philip/da4273c5-2f12-470a-9947-c788b067eb8f/programming/Dr_mad_daemon/data/img/PDA/clock2.png"
       inkscape:export-xdpi="90"
       inkscape:export-ydpi="90"><tspan
         sodipodi:role="line"
         id="tspan3045"
         x="54.906769"
         y="699.53723">NERD WATCH</tspan></text>
    <rect
       style="fill:#000000;display:inline"
       id="rect3041-2"
       width="250"
       height="160"
       x="358"
       y="720.36218"
       inkscape:export-filename="/run/media/philip/da4273c5-2f12-470a-9947-c788b067eb8f/programming/Dr_mad_daemon/data/img/PDA/glove2.png"
       inkscape:export-xdpi="90"
       inkscape:export-ydpi="90" />
  </g>
</svg>
