<?xml version="1.0" encoding="UTF-8" standalone="no"?>
<!-- Created with Inkscape (http://www.inkscape.org/) -->
<svg
   xmlns:svg="http://www.w3.org/2000/svg"
   xmlns="http://www.w3.org/2000/svg"
   version="1.0"
   width="928pt"
   height="1110pt"
   viewBox="0 0 928 1110"
   id="svg2814">
  <defs
     id="defs2965" />
  <path
     d="M 0,0 L 928,0 L 928,1110 L 0,1110 L 0,0 M 491.3,19.2 C 491.8,19.7 491.8,19.7 491.3,19.2 M 449.4,30.6 C 443.9,31.9 438.2,33.2 433.5,36.5 C 424,44.4 420.1,56.6 413.7,66.7 C 407.7,75.9 403,85.8 397.3,95.2 C 393.1,103.5 387.1,110.8 383.5,119.4 C 378.5,128.3 373.4,137.3 368.2,146.1 C 366.3,149.6 364.8,153.2 362.5,156.5 C 358.9,161.4 356.9,167.3 353.5,172.4 C 349.5,178.6 346.6,185.4 342.5,191.5 C 338.7,197.2 336.3,203.7 332.6,209.5 C 329,215 326.3,221.1 322.6,226.5 C 319,231.6 317.5,237.8 314,242.9 C 309.8,248.9 307,255.7 302.8,261.7 C 299.6,266.1 298.5,271.7 295.1,276.1 C 291,281.6 288.2,287.9 285,293.9 C 281.5,298.7 279.5,304.2 276.2,309.1 C 271,317.4 267.5,326.7 261.7,334.6 C 259.4,338.2 258.2,342.3 255.9,345.9 C 249.7,355.2 245.2,365.6 238.9,374.9 C 232.4,384.3 228.9,395.6 222,404.8 C 218.1,413.3 212.5,420.9 208.3,429.2 C 207,432.1 205.4,434.9 203.6,437.6 C 201.3,440.8 200.3,444.7 198.1,448 C 192,457.1 187.2,466.9 181.2,476 C 179.2,479.8 178.6,484.4 175.7,487.8 C 169,495.9 166.5,506.6 160,514.9 C 155.7,520.6 153.9,527.8 149.5,533.5 C 145.4,539.2 142.6,545.7 138.6,551.5 C 133.4,561.2 126.8,570.3 122.7,580.6 C 120.2,585.6 116.6,590 114,594.9 C 109.3,600.9 106.1,607.9 102.8,614.8 C 97.9,619.8 96.7,627.1 92.6,632.6 C 85.7,641.9 81.7,652.9 75.9,662.8 C 73.4,667.1 72,672 68.5,675.6 C 65.7,678.4 65.1,682.5 62.7,685.6 C 58.8,690.5 55.8,696.1 52.5,701.4 C 48.4,710.1 46.7,720.6 50.4,729.8 C 52.7,736.4 57.7,741.5 62.6,746.3 C 68.1,749.6 74.3,753.1 81,752.6 C 89.6,752.7 98.4,752.2 107,753.1 C 114.6,752.2 122.3,752.6 130,752.5 C 157.6,752.5 185.2,752.6 212.8,752.4 C 217.6,751 222.4,753 227.2,752 C 234.1,751 241.2,751.6 248.1,752.4 C 255.4,752.5 262.7,751.8 270,751.4 C 274.9,751.1 279.6,753.1 284.5,752.2 C 290.6,751 296.8,751.7 303,751.5 C 321.7,751.6 340.3,751.4 358.9,751.5 C 362.9,751.1 366.9,749.9 370.8,750.9 C 377.9,752.7 384.9,749.4 392,750.8 C 396.3,751.8 400.7,750.8 405,750.5 C 442.7,750.5 480.3,750.5 518,750.5 C 524,749.8 530,749.3 536,749.6 C 544.1,749.1 552.1,751.4 560.2,750 C 564.4,749.3 568.7,749.6 573,749.6 C 610,749.6 647,749.5 684,749.5 C 687.7,749.5 691.3,748.6 695,748.6 C 725,748.6 755,748.5 785,748.5 C 792,748.4 799.1,748.9 806,747.8 C 819.2,747.2 832.5,748 845.8,747.5 C 854.5,745.1 862.9,739.6 867.2,731.4 C 870.2,725.5 869.9,718.7 869.5,712.2 C 867.7,700.9 858.3,693.1 854.2,682.7 C 853,679.7 850.1,677.9 848.9,674.9 C 843,662.3 834.8,650.9 828.3,638.6 C 826.5,636 824.5,633.5 823.4,630.4 C 821.1,624.1 817.1,618.7 814.2,612.8 C 808.6,602.1 801.4,592.3 796.7,581.2 C 795.4,578 792.5,575.9 791.1,572.8 C 787.7,563.8 781.1,556.4 777.3,547.6 C 770.2,534.8 761.9,522.6 755.4,509.4 C 750.5,501.3 745.2,493.4 741.1,484.9 C 737.1,478.7 734.2,471.9 730,465.9 C 723.6,454.6 716.8,443.6 710.8,432.1 C 703.2,424.3 700.7,413.2 694.5,404.4 C 690.3,397.6 686,390.8 682.3,383.6 C 678.4,378.9 676.6,372.9 673,367.9 C 670.3,364.2 668.7,359.8 665.9,356 C 663.7,352.9 661.2,350 659.4,346.5 C 658.1,343.8 657.5,340.7 655.8,338.1 C 651.7,331.9 648.5,325 643.9,319.1 C 640.3,314.9 639.1,309.4 636.2,304.8 C 631.8,297.8 627.7,290.6 623.4,283.6 C 621.9,280.8 621,277.6 618.5,275.5 C 613.2,270.1 611.9,262.3 607.6,256.2 C 605.3,252.7 602.2,249.6 600.2,245.7 C 597.4,240.2 594,234.9 591.8,229 C 589.6,223.3 584.8,219.3 581.8,214.1 C 579.5,210.5 578.9,206.1 576.4,202.6 C 574.6,200.1 573.3,197.5 572.1,194.7 C 570.5,191.2 566.8,189.1 565.4,185.5 C 564.3,182.8 563.4,179.8 561.5,177.5 C 557.9,173.2 556.8,167.3 552.5,163.5 C 549.2,161 549.5,156.3 546.6,153.5 C 543.5,150.6 542.6,146.2 540.2,142.8 C 536,136.1 532.7,128.9 528.8,122 C 525.2,118.2 522.9,113.4 520,109.1 C 518.5,106.2 517.8,102.9 515.4,100.6 C 511,96.1 510,89.6 506.2,84.7 C 502.4,79.6 501.6,72.6 496.7,68.4 C 492.8,65.2 492.8,59.8 490,55.9 C 487.4,52.2 483.8,49.1 482.1,44.8 C 481.4,42.6 479.3,41.6 477.5,40.5 C 474.8,38.9 473.4,35.9 471.1,33.9 C 468.8,32.1 465.9,31.5 463,31.4 C 458.5,31.1 453.9,29.8 449.4,30.6 M 554.3,125.3 C 554.8,125.8 554.8,125.8 554.3,125.3 M 343.3,143.3 C 343.8,143.8 343.8,143.8 343.3,143.3 M 567.3,148.2 C 567.8,148.7 567.8,148.7 567.3,148.2 M 577.3,165.2 C 577.8,165.7 577.8,165.7 577.3,165.2 M 613.3,226.2 C 613.8,226.8 613.8,226.8 613.3,226.2 M 617.3,233.2 C 617.8,233.7 617.8,233.7 617.3,233.2 M 672.3,324.3 C 672.8,324.8 672.8,324.8 672.3,324.3 M 717.3,404.2 C 717.8,404.7 717.8,404.7 717.3,404.2 M 904.1,470.4 C 904,470.8 903.8,471.5 903.7,471.8 C 905.3,474.6 907,468.8 904.1,470.4 M 770.1,497.3 C 768.6,500.2 773.5,497.4 770.1,497.3 M 88.3,594.3 C 88.8,594.8 88.8,594.8 88.3,594.3 M 31.3,714.3 C 31.8,714.8 31.8,714.8 31.3,714.3 M 279.3,806.2 C 274.8,811.4 274.6,818.8 275.9,825.2 C 280,831.5 286.7,836.2 294.2,837.5 C 298.6,838.3 303,839.6 307.4,840.5 C 311.5,841.2 315,844.3 316.8,848 C 316.7,851.1 315.6,854.2 313.7,856.7 C 307.3,861 298.5,861.4 292.1,857 C 288.5,854.7 287.8,850.3 286.2,846.7 C 281.9,846 277.6,847.4 273.3,847.6 C 272.2,856.7 279.1,864.1 286.3,868.6 C 289.7,870.1 293.4,870.9 297.1,871.5 C 302.4,872.4 307.6,870.5 312.8,869.5 C 317.7,868.6 322,865.8 326,863 C 329.5,860.5 330.9,856.2 330.6,852.1 C 330.4,847.7 331.6,842.8 328.9,839 C 327.1,836.3 325,833.7 322.5,831.6 C 319.1,829 314.7,828.5 310.7,827.6 C 306.2,826.6 301.9,824.6 297.4,823.9 C 295,823.3 292.3,823.3 290.6,821.4 C 288,819 287.8,814.6 289.6,811.7 C 292.2,809.4 295.7,808.3 299,807.7 C 302.9,808.5 306.8,809.7 310.2,811.8 C 312,813.7 312.9,816.3 314.3,818.6 C 318.8,818.7 323.3,818.7 327.7,818.6 C 328.4,812.3 325.5,805.2 319.5,802.6 C 314,800.1 308.2,797.6 302,798.3 C 294,798.8 284.7,799.5 279.3,806.2 M 579.5,798.6 C 579.3,802.8 580.5,806.8 580.5,811 C 580.3,830.2 580.5,849.4 580.4,868.6 C 596.8,868.6 613.2,868.6 629.6,868.6 C 629.7,864.9 629.7,861.1 629.6,857.4 C 617.8,857.1 605.8,857.9 594,857 C 593.5,852.3 593.5,847.6 593,843 C 594.1,834 593.4,825 593.6,816 C 594,810.7 592.1,805.4 593.6,800.1 C 589.5,797.1 584.1,798.5 579.5,798.6 M 158.6,799.6 C 158.3,803.5 158.2,807.5 158.6,811.4 C 162.8,811.7 167.1,811.7 171.4,811.4 C 171.6,808.4 171.8,805.3 171.5,802.2 C 171.5,800.8 170.2,799.5 168.8,799.5 C 165.4,799.1 162,799.4 158.6,799.6 M 86.3,805.9 C 86.5,819.5 86,833.1 86.5,846.7 C 87.9,854.6 86.8,862.6 87.5,870.5 C 89.3,870.6 91.2,870.7 93,870.7 C 104.3,870.1 115.7,871.5 127,869.9 C 141.4,870 151.2,850.3 141.9,839.1 C 138.8,837.4 134.2,836.4 133.9,832.2 C 136.9,827.7 141.2,823.6 141.7,817.9 C 141.2,813.7 139.7,809.7 138,805.9 C 135.2,802.3 130.6,800 126,800.4 C 113.8,800.4 101.5,800.2 89.2,800.4 C 86.1,800.2 86.2,803.8 86.3,805.9 M 704.8,816.9 C 694.7,820.1 691.8,835.4 700.1,842 C 706.8,847.7 716.4,846.9 724.4,849.5 C 726.3,850.2 729.3,852.3 727.9,854.7 C 725.8,858.5 721.5,861.3 717,860.4 C 711.9,860.3 708.3,856.4 704.5,853.6 C 701.4,853.1 698.3,854.1 695.3,854.6 C 695.4,856.3 694.9,858.4 696.3,859.7 C 699,862.6 701.8,865.7 705.5,867.3 C 711.7,868 718,869.3 724.3,868.2 C 729.3,867.6 734.5,865.9 737.9,861.9 C 739.8,858.1 741.6,853.4 739.9,849.1 C 738.2,844.1 734.8,839.1 729.4,837.8 C 723,836.9 716.6,835.6 710.4,833.7 C 708.3,832.6 705.5,829.8 707.1,827.4 C 710.8,824.4 716,822.4 720.7,824.2 C 723.8,825.1 725.9,827.7 728.5,829.4 C 731.2,830.1 733.9,828.9 736.5,828.3 C 736.6,826.8 737.1,825.1 736.1,823.9 C 733,819.3 727.4,817.6 722.4,815.8 C 716.6,814.7 710.5,815.5 704.8,816.9 M 767.4,816.5 C 763,817.9 758.3,819.6 755.3,823.4 C 751.4,827.6 751.1,833.7 750.5,839.2 C 750,848.2 752.8,858.1 760.1,863.8 C 766.1,868.2 773.9,869.6 781.1,868 C 788.7,867.1 795.5,861.7 797.7,854.4 C 793.7,853.1 789.6,852.2 785.4,852.4 C 783.3,854.6 781.7,857.9 778.5,858.7 C 775,860.2 771.3,858.4 768.1,857 C 764.6,855.5 763.4,851.4 762.6,848.1 C 764.4,846.5 766.3,844.6 769,844.7 C 778.5,844.5 788,844.9 797.6,844.6 C 798,842.8 798.8,841 798.3,839.2 C 796.6,832.9 795,825.8 789.6,821.4 C 783.6,816.5 774.9,813.8 767.4,816.5 M 829.7,815.8 C 827.3,817.4 825.3,819.4 823.1,821.2 C 821.4,819.5 819.9,817.2 817.4,816.7 C 815.2,816.3 812.3,815.6 810.7,817.7 C 809.8,823 811,828.4 809.8,833.6 C 808.7,838.8 810.5,843.9 810.5,849 C 810.5,854.9 810.3,860.7 810.4,866.6 C 814,866.7 817.7,867 821.3,866.3 C 822.9,865.5 822.5,863.5 822.7,862 C 822.8,856.4 822.4,850.7 823,845.1 C 823.4,841.4 822.5,837.6 824,834.2 C 825.2,830.6 827.6,827.4 831.2,825.9 C 834.1,825.3 837.2,827.4 840,826.1 C 841.7,823 843,817.9 839.6,815.5 C 836.3,815.1 832.9,815 829.7,815.8 M 652.6,816.8 C 647.6,818.4 642.7,821.7 640.8,826.7 C 640.4,827.8 640,829.2 640.7,830.2 C 643.7,831.7 647.2,832 650.5,831.4 C 652,830.3 653.3,828.9 654.7,827.7 C 657.7,824.9 662.2,825.3 665.9,825.8 C 669.2,826.9 670.5,830.8 670.5,834 C 662.8,840 651.9,837.5 643.9,843 C 641.7,844.7 639.3,847 639.4,850.1 C 639.3,853.5 638.9,857 639.7,860.4 C 641.3,863.2 642.9,866.4 645.7,868.2 C 651.3,869.2 657.3,868.9 662.9,867.8 C 666.2,867.3 668.6,864.7 671.7,863.6 C 672.7,864.9 673.5,866.3 674.8,867.3 C 678.1,868 681.5,867.7 684.9,867.6 C 684.3,863.7 682.3,860 682.6,856 C 682.8,847.7 682.5,839.4 682.6,831 C 682.8,826.5 680.2,822 676.2,819.8 C 668.9,816.5 660.6,815.4 652.6,816.8 M 349.2,823.2 C 343.3,827.4 341.1,835 341.3,842 C 341.4,847.7 340.6,854 344,859 C 347,863.5 350.8,867.7 355.8,870 C 359.5,870.8 363.4,871 367.2,871.5 C 373.2,871.2 378.7,868 383.5,864.4 C 386.8,861.6 389.4,857.2 388.5,852.8 C 384.6,851.8 380.6,851.1 376.6,851.4 C 375.5,854.2 375.2,857.9 372.1,859.3 C 365.9,862.8 357.3,859.5 355,852.8 C 354,847.5 352.7,841.8 354.4,836.5 C 355.4,832.8 358,829.5 361.4,827.6 C 364.7,827.2 368.3,827.2 371.4,828.6 C 373.3,830.3 374.8,832.5 376.5,834.6 C 380.3,834.8 384,834.5 387.7,833.5 C 388.2,825.1 380.1,819 372.6,817.7 C 364.6,816.8 355.3,817.1 349.2,823.2 M 405.5,820.5 C 401.4,822.7 399.6,827.3 398.2,831.5 C 401,831.9 403.8,832.6 406.6,832.5 C 409.4,831 411.5,828.3 414.5,827.3 C 418,825.9 422.1,826.6 425.4,828.6 C 427.7,830 428.4,832.8 429.3,835.2 C 425.2,838.8 419.6,839.3 414.5,839.8 C 409.9,841 405.2,842.6 401.3,845.3 C 396.9,849.7 394.5,857.3 398.3,862.8 C 400.2,866.6 403.8,869.4 408.1,869.8 C 415.3,871.8 423.7,870.3 428.9,864.6 C 430.4,865.9 431.5,867.7 433.4,868.5 C 436.1,869.1 438.8,868.7 441.5,868.5 C 441.7,866.2 441.7,863.9 441.3,861.6 C 440.2,856.1 440.6,850.5 439.7,845 C 439,839.6 442.7,833.6 439.2,828.7 C 437.2,825.8 436.3,821.8 432.9,820.2 C 430,818.4 426.5,818.3 423.3,817.8 C 417.3,816.9 410.8,817.5 405.5,820.5 M 469.8,823.2 C 468.3,823.1 467.4,821.6 466.2,820.8 C 463.8,818.4 460.2,819.5 457.2,819.3 C 456.2,821.7 456.3,824.4 456.3,827 C 456.4,840.9 456.4,854.8 456.3,868.6 C 460,868.7 463.7,868.7 467.4,868.8 C 466.6,864.3 468.2,859.9 467.3,855.4 C 466.2,850.1 467.8,844.7 468.1,839.4 C 468.3,835.2 470.1,830.7 474.1,828.8 C 477.8,828 481.4,829.7 485.1,829.5 C 486.3,827.1 487.8,824.8 490,823.3 C 492.9,826.2 493.7,830.3 495.3,833.9 C 496.5,837 498.6,839.7 499.2,843 C 499.8,845.6 500.4,848.2 501.5,850.6 C 504.3,856.6 506,863 508.1,869.2 C 509.3,872.4 506.9,875.5 504.9,877.8 C 502.2,880.9 497.9,880.3 494.4,880.4 C 494.2,883.5 494.2,886.6 494.4,889.7 C 501.8,890 510.1,890.3 515.9,884.9 C 517.7,878.5 521.1,872.8 523.5,866.6 C 526.7,861.2 526.6,854.8 529.2,849.3 C 530.9,842.9 534.1,837.1 535.7,830.8 C 536.9,826.6 539.7,822.9 539.9,818.4 C 536.4,818.2 532.8,818.3 529.3,818.4 C 528.5,819.5 527.5,820.5 527.1,821.9 C 524.2,830.8 521,839.6 518.9,848.8 C 518.7,850.1 517.7,851.9 516.1,851.4 C 511.7,849.5 512.5,844.1 511.2,840.4 C 509.1,833.7 507,827 504.2,820.6 C 503.2,818.1 500.4,817.3 498,817.4 C 491.3,817.5 484.7,817.4 478,817.3 C 474.1,816.9 472.5,821.1 469.8,823.2 M 186.8,830.6 C 183.9,839.3 183,849.1 186.3,857.8 C 188.8,861.8 191.9,865.4 195.5,868.5 C 199.1,871.7 204.4,870.6 208.8,870.5 C 213.8,870.7 215.6,863.2 221,864.9 C 221.2,869.9 223.3,876.9 218.1,880.1 C 214.8,883.1 210,882.5 205.9,882.4 C 203.7,882.4 202.3,880.6 200.6,879.4 C 197,876.1 191.9,875.7 187.3,875.3 C 186.5,876.8 185,878.5 185.9,880.3 C 187.9,884.5 190.7,889.1 195.6,890.2 C 203.3,891.8 211.4,892.2 219.3,891.2 C 223.3,890.7 226.6,888.1 229.6,885.6 C 232,883.8 232.3,880.6 232.5,877.9 C 232.8,872.9 233.8,868 233.7,863 C 233.7,859.3 232.4,855.7 232.6,852 C 232.7,843.7 232.6,835.3 232.7,826.9 C 232.6,825.1 232.9,823 231.3,821.7 C 229.3,819.5 226.1,820.4 223.5,820.4 C 222.6,821.6 221.7,822.7 220.7,823.9 C 219.2,823 217.7,821.9 216.2,821 C 211.5,817.8 205.6,818.1 200.2,818.5 C 194.2,820.2 189.2,824.9 186.8,830.6 M 159.3,820.3 C 159.6,837 159,853.8 159.5,870.5 C 163.2,870.7 167.1,871.3 170.7,869.8 C 170.6,854 170.8,838.2 170.6,822.4 C 167.5,819.5 163.1,820.4 159.3,820.3 M 640.6,916.5 C 640.2,931.9 640.3,947.2 640.5,962.5 C 643.3,962.9 646.2,962.8 648.9,961.8 C 652.8,960.1 656.1,964.2 660,963.8 C 666,964.6 670.6,959.1 671.7,953.8 C 673.1,948.1 673.5,941.6 670.7,936.2 C 667.5,931.6 662.1,927.6 656.3,928.4 C 654,929.1 652,930.4 649.9,931.5 C 645.4,928.3 649,922.1 647.1,917.8 C 645.4,916 642.8,916.3 640.6,916.5 M 110.4,918.3 C 110.3,931.5 110.5,944.8 110.4,958 C 110.3,960.6 110.6,963.1 111.4,965.6 C 118.6,965.7 125.8,965.6 133,965.6 C 135.9,965.7 138,963.6 140.3,962.3 C 143.1,960.3 146.6,958.5 148,955.2 C 149.6,948.3 150.4,941.1 148.6,934.3 C 147.4,929.9 147.1,924.6 143.2,921.8 C 141,920.2 138.7,918.5 135.9,918.4 C 130,918.1 124.1,918.9 118.2,918.1 C 115.6,917.7 112.9,917.1 110.4,918.3 M 442.4,917.3 C 442.4,933.1 442.5,948.8 442.4,964.6 C 445.1,964.7 447.9,964.7 450.6,964.6 C 450.7,960.3 450.4,955.6 452.8,951.9 C 453.4,950.6 454.8,950.4 456,950 C 459.9,954.3 461.1,960.5 465.5,964.5 C 467.8,964.9 470.2,964.5 472.6,964.4 C 472.5,963.2 472.7,961.9 472.1,960.8 C 469.3,955.6 466,950.7 463.2,945.6 C 461.5,943.3 463.5,940.8 464.7,938.8 C 466.7,935.6 470.6,933.5 470.9,929.4 C 468.2,929.4 465.4,929.1 462.8,929.8 C 458.7,932.6 457.1,937.7 453,940.4 C 452.2,939.7 451.3,939 450.5,938.3 C 449.1,931.4 450.5,924.2 448.6,917.4 C 446.6,917.3 444.5,917.3 442.4,917.3 M 499.6,917.5 C 499,929.3 499.6,941.2 499.3,953 C 499.4,956.6 498.8,960.3 500.2,963.7 C 502.4,963.7 504.5,963.7 506.6,963.7 C 506.6,955.2 506.8,946.7 506.4,938.2 C 505.4,931.3 508.2,924.2 505.3,917.6 C 503.4,917.2 501.5,917.3 499.6,917.5 M 342.4,918.2 C 342.3,933.4 342.4,948.6 342.3,963.7 C 344.8,963.8 347.3,963.8 349.7,963.7 C 348.1,958.1 350,952.5 349.6,946.9 C 349.3,939.3 349.9,931.7 349.6,924.1 C 349.7,921.7 348,920 346.6,918.4 C 345.2,918.3 343.8,918.3 342.4,918.2 M 300.9,925.7 C 299.9,929.2 297.5,932.7 298.3,936.5 C 299.1,937.5 300.1,938.3 300.9,939.3 C 303.2,946.2 301.7,953.5 302.6,960.6 C 304.5,965.6 310.4,964.9 314.8,964.6 C 317.6,960.7 312.3,958.1 309.7,955.9 C 309.6,950.7 309.3,945.4 309.8,940.1 C 310.6,937 314.1,936.9 316.7,936.3 C 316.6,934.4 316.3,932.5 315.6,930.6 C 314,930.4 312.4,930.2 310.9,930 C 310.4,926.4 310.5,922.7 310.5,919.1 C 306.7,919.9 301.7,921.2 300.9,925.7 M 559.7,921.5 C 559.5,923.6 559.3,925.6 559,927.7 C 557.2,928.9 554.8,930.1 554.6,932.6 C 553.6,935.8 558.1,936.7 558.8,939.5 C 559.9,943.5 559.3,947.8 559.4,952 C 559.5,955.5 558.5,959.8 561.8,962.2 C 564.8,966.3 570.3,964.3 574.4,963.3 C 574.6,961.4 574.6,959.6 574.5,957.7 C 572.2,957.3 569.6,957.6 567.6,956.4 C 565.3,953.1 567.6,949 567.2,945.3 C 566.9,942.5 566,938.7 568.9,936.9 C 570.2,935.6 572.7,935 572.6,932.9 C 573.2,929.6 568.7,929.7 567.4,927.5 C 566.7,925.5 566.3,923.3 565.7,921.3 C 563.7,921.3 561.7,921.4 559.7,921.5 M 684,932 C 679.1,936.2 679,943 679.4,948.9 C 679.5,953.2 682.3,956.9 685.1,959.9 C 688.1,963.2 692.8,963.5 697,963.6 C 702.3,963.7 708.6,960.2 708.9,954.3 C 707.1,953.3 705.1,952.7 703.1,952.4 C 701.2,954.2 699.4,956.4 696.7,957 C 694.1,957.9 691.3,956.3 689.5,954.4 C 687.9,952.6 688.7,950 688.8,947.9 C 696.4,947.1 704,948 711.5,947.4 C 711.7,944.7 711.4,942 710.2,939.6 C 708.5,936 706.9,932 703.4,929.7 C 697.3,926.6 688.8,926.5 684,932 M 721.9,930 C 719.3,931.2 719.1,934.2 719.2,936.7 C 722.9,937.2 726.4,936.1 729.6,934.4 C 732.2,932.9 735.4,933.8 737.8,935.4 C 739.8,937.7 737,940.3 734.7,940.9 C 728.9,942.7 722.2,943.1 717.7,947.7 C 717.2,949.8 717.2,951.9 717.3,954 C 717,957.9 720.5,960.6 723.5,962.4 C 728.8,963.7 734,961.8 738.8,959.8 C 740.7,961.6 742.8,963.3 745.6,962.7 C 746.5,960.4 746.8,957.8 746.2,955.4 C 744.7,948.5 746.6,941.4 745.2,934.5 C 744.1,931.3 740.9,929.3 737.8,928.4 C 732.6,926.7 726.8,927.7 721.9,930 M 766.1,930.3 C 763.1,928.8 759.9,927.8 756.6,928.5 C 756.1,939.6 756.5,950.6 756.3,961.7 C 759,961.8 761.7,961.8 764.4,961.4 C 765.4,954.3 763.4,947.1 764.8,940.1 C 765.7,935.4 771.2,931.8 775.7,934.2 C 777.5,937.5 777.4,941.4 777.4,945 C 777.3,950.6 777.3,956.2 777.4,961.7 C 779.9,963 783.8,963.3 785.5,960.6 C 786.3,952 783.7,942.5 788.8,934.7 C 791.6,932 798,933.6 798.3,938 C 798.8,946.2 797.9,954.4 798.6,962.5 C 800.9,962.9 803.2,962.1 805.4,961.3 C 806.1,953.2 805.5,945.1 805.7,937 C 806.1,931.1 800.1,927.3 794.7,927.4 C 791.2,926.6 788.5,929.4 785.9,931.3 C 781.5,929.6 777.2,926.6 772.3,927.4 C 770.1,928.1 768.1,929.3 766.1,930.3 M 527.8,933.2 C 524.8,932.8 522.1,930.7 519.1,930 C 518,932.5 518.3,935.3 518.3,938 C 518.4,946.2 518.2,954.5 518.4,962.7 C 520.4,963.3 522.5,963.7 524.6,963.8 C 524.5,960.6 524.6,957.4 524.9,954.3 C 525.4,951 524.2,947.6 525.1,944.3 C 525.8,941.1 526.8,937.4 530.2,936.1 C 532.3,935.1 535.4,933.4 537.2,935.7 C 542.6,944.1 539.6,954.4 540.4,963.8 C 542.8,963.5 546.6,964.6 547.6,961.6 C 547.7,958.1 546.3,954.7 547,951.2 C 547.6,944.9 549.9,937.8 545.8,932.2 C 541.2,926.6 531.9,927.6 527.8,933.2 M 372.4,929.6 C 369.3,930.4 366.1,931.4 363.7,933.7 C 359.4,939 357.1,946.2 359.2,952.9 C 359.9,958.4 364.4,962.7 369.4,964.4 C 374.5,964.9 380.2,965.5 384.7,962.6 C 387.7,960.8 390.8,958.6 392.2,955.3 C 395.8,947.3 392.5,937.5 386,932.1 C 382,929.6 377,928.8 372.4,929.6 M 413.4,929.6 C 407.1,930 401.8,935.2 400.4,941.2 C 398.8,946.9 398.4,953.8 402.5,958.6 C 408.1,965.5 418.8,966.5 426.4,962.4 C 433,959 435.5,950.6 434.3,943.6 C 432.6,934.3 422.7,927.4 413.4,929.6 M 590.4,929.6 C 583.6,930.3 578.5,937.3 579.3,944 C 578.6,950.2 580.3,956.7 585,961 C 591.4,965.2 600.1,965.6 606.6,961.6 C 609.2,959 611,955.8 612.3,952.5 C 613.7,945.1 612.4,935.8 605.2,931.9 C 600.9,928.9 595.4,928.9 590.4,929.6 M 171.4,930.6 C 164.9,931.2 159.7,936.5 157.6,942.4 C 157.2,946.9 156.8,951.6 158.1,956 C 161,960.7 166,964.5 171.5,965.4 C 177.6,966.6 183.8,964.1 188.5,960.5 C 193.2,952.5 192,941.8 186.6,934.4 C 182.7,930.5 176.6,929.8 171.4,930.6 M 229,932.6 C 225.9,931.7 222.7,930.9 219.4,931.3 C 219.3,939.5 219.4,947.8 219.3,956 C 219.4,958.9 219,962 220.3,964.8 C 222.3,964.7 224.4,964.6 226.5,964.5 C 226.9,958.7 226.5,952.8 226.6,947 C 226.5,943.7 227.3,940 230.3,938.3 C 232.7,937 236,935.5 238.4,937.6 C 241.4,942 240,947.6 240.7,952.5 C 241.5,956.9 241.4,961.3 241.4,965.7 C 244.1,965.7 246.8,965.6 249.4,965.4 C 249.7,957.3 249.6,949.2 249.5,941.1 C 249.6,936.8 247.1,932.8 243.5,930.6 C 238.5,929.5 233.6,930.7 229,932.6 M 269.6,930.7 C 264.1,932.5 259.7,937.2 257.8,942.6 C 257.5,945.7 258.4,948.9 258.3,952 C 258.1,956.4 260.9,960.3 264.3,962.7 C 270.2,966.1 277.8,966.6 284.1,963.9 C 288.5,961 290.7,955.6 292.6,950.8 C 292.3,944.7 291.8,937.5 286.5,933.5 C 282.2,928.8 275.2,930.3 269.6,930.7 M 254.5,994.2 C 254.3,1009 254.5,1023.8 254.4,1038.6 C 257,1039.6 259.7,1039.9 262.4,1039.5 C 263.1,1031.4 261.7,1022.8 265.1,1015.2 C 266.9,1011.7 272.1,1009.9 275,1013.1 C 280.2,1020.6 277.5,1030.1 278.5,1038.6 C 280.6,1038.4 284.3,1039.8 284.9,1036.9 C 286.7,1030.4 285.1,1023.6 284.6,1017 C 284.2,1012.2 282.8,1005.9 277.1,1005 C 272.5,1002.7 268.5,1007.6 263.8,1006.3 C 263.4,1001.3 263.7,996.3 262.5,991.4 C 259.8,991.5 254.8,990.3 254.5,994.2 M 475.3,991.3 C 474.2,993.6 474.3,996 474.5,998.4 C 477.5,998.7 480.6,998.7 483.7,998.6 C 483.7,996.1 483.7,993.6 482.7,991.4 C 480.2,991.3 477.8,991.3 475.3,991.3 M 535.3,991.3 C 535.2,993.7 535.3,996.1 535.5,998.5 C 537.9,998.7 540.3,998.7 542.7,998.7 C 542.5,996.2 542,993.8 541.5,991.4 C 539.4,991.3 537.3,991.3 535.3,991.3 M 213.4,992.3 C 213.3,994.8 213.3,997.2 213.4,999.7 C 216.1,999.8 218.8,999.7 221.5,999.4 C 221.7,997.1 221.7,994.8 221.5,992.6 C 218.8,992.3 216.1,992.2 213.4,992.3 M 233.7,997.7 C 232.5,999.6 232.5,1002.1 231.1,1004 C 230.4,1005.3 229.1,1006.4 229.2,1008 C 228.8,1010.8 231.6,1012.3 233.2,1014.1 C 234.1,1021.2 232.1,1028.7 234.4,1035.6 C 235.7,1040.1 241.2,1039.8 244.9,1039.7 C 247,1039.9 249.1,1038.3 248.6,1036.1 C 248.6,1032.2 242.3,1033.7 242,1029.8 C 240.9,1025 241.1,1019.9 241.7,1015 C 241.6,1011.9 245.2,1011.9 247.4,1011.1 C 247.6,1009.6 247.7,1008.1 247.7,1006.6 C 245.7,1005.7 243.7,1005 242,1003.8 C 241.4,1001 241.6,998.1 241.6,995.2 C 238.8,995.4 235.6,995.3 233.7,997.7 M 729,1009 C 727,1011.5 727.4,1014.9 727.3,1018 C 727.4,1022 726.8,1026.4 729,1030.1 C 730.7,1032.8 732.6,1036 736,1036.8 C 741.8,1038.3 748.6,1038.1 753.5,1034.5 C 755.6,1033.1 755.7,1030.6 755.8,1028.4 C 753.7,1027.9 751.1,1026.4 749.1,1028.1 C 747,1029.7 744.8,1031.6 742,1031.4 C 738.5,1030.7 735.7,1027.6 735.4,1024 C 736.8,1022.9 738.2,1021.8 740,1021.8 C 745.9,1021.3 751.7,1022 757.5,1021.4 C 757.9,1016.9 757.5,1012 754.7,1008.3 C 751,1003.7 744.8,1001.6 739.1,1002.4 C 734.8,1002.4 731.5,1005.7 729,1009 M 563.9,1006.1 C 560.8,1005.1 557.7,1004.1 554.4,1004.3 C 553,1008.7 553.5,1013.4 553.4,1018 C 553.5,1024.8 553.2,1031.6 553.6,1038.4 C 556.5,1038.7 559.5,1038.7 562.4,1038.4 C 562.9,1031.6 562.3,1024.8 562.6,1018 C 562.6,1014.4 565,1010.3 569,1010.5 C 571.4,1010.4 575.3,1010 576.1,1013.2 C 577.3,1021.3 575,1029.8 577.3,1037.7 C 579.3,1037.8 581.4,1037.7 583.4,1037.4 C 583.6,1031.6 584,1025.7 582.8,1020 C 582.3,1017.7 583,1015.5 583.1,1013.2 C 582.4,1010.3 581,1007.6 580,1004.8 C 574.7,1003 568.6,1002.4 563.9,1006.1 M 601.6,1003.7 C 598.4,1005.6 595.6,1008.4 593.8,1011.7 C 593,1015.7 593.4,1019.9 593.3,1024 C 593,1029.6 596.8,1034.8 601.7,1037.2 C 607,1039 612,1036.3 617,1035 C 617.4,1037.3 617.5,1039.7 617.3,1042 C 614.6,1044.4 610.4,1048.1 606.8,1045.3 C 603.1,1043 598.4,1039.6 594.1,1042.2 C 594.6,1044.6 594.7,1047.6 597.1,1048.9 C 604.5,1053 613.8,1052.2 621.6,1049.5 C 624.8,1045.1 624.8,1039.2 624.7,1034 C 624.3,1024.5 625,1014.9 624.5,1005.4 C 620.4,1004.4 616.3,1008.2 612.5,1005.6 C 609.2,1003.8 605.3,1002.6 601.6,1003.7 M 656,1008 C 650.4,1013.7 652.6,1022 653.4,1029 C 653.4,1032.8 656.5,1035.6 659.4,1037.5 C 666.2,1040.3 673.6,1037.9 679.6,1034.6 C 681,1033.1 681.3,1031 681.9,1029.1 C 680.7,1028.6 679.3,1028.1 678,1028.2 C 673.8,1027.7 671.1,1032.1 667.1,1032.2 C 664.3,1031.4 661.9,1029.3 661.3,1026.5 C 660.5,1025 661.3,1023 663.1,1022.8 C 669.9,1021.7 677,1023.9 683.6,1021.7 C 683.6,1017.9 684.3,1013.5 681.7,1010.2 C 679.4,1007 676.3,1003.3 672,1003.4 C 666.4,1003.1 659.6,1002.6 656,1008 M 713.9,1003.9 C 710.4,1009.9 709.1,1016.9 707.6,1023.6 C 707.4,1025.2 705.3,1025.1 704,1025.5 C 699.5,1019.9 699.1,1012.3 695.9,1006 C 694.8,1003.3 691.5,1004.5 689.3,1004.3 C 688.8,1008.1 689.9,1011.8 692,1015.1 C 695.3,1022.8 699.4,1030.4 700.2,1038.9 C 699.3,1043.8 694,1044.5 690.2,1046.2 C 690.5,1047.7 690.9,1049.1 691.3,1050.6 C 695.3,1050.6 699.6,1051.3 703.2,1049.1 C 706.2,1047.3 707.1,1043.6 708.5,1040.6 C 713.3,1029.4 716.2,1017.6 721.3,1006.6 C 721.9,1005.5 721,1004.3 720.7,1003.3 C 718.5,1003.5 715.9,1002.7 713.9,1003.9 M 327.7,1004.9 C 323.7,1006.4 319.5,1005.1 315.5,1005.3 C 313.8,1010.9 315.6,1016.6 314.6,1022.3 C 314.8,1027.7 315.7,1033.2 315.3,1038.7 C 317.5,1038.7 319.6,1038.7 321.8,1038.6 C 323.4,1033.4 322.5,1027.9 322.3,1022.6 C 321.9,1019.2 323.1,1015.7 325.3,1013.2 C 328.2,1012.3 331.3,1012.7 334.3,1012.3 C 335.2,1009.8 336.2,1006.9 334.7,1004.4 C 332.3,1004.3 329.9,1004.1 327.7,1004.9 M 344.7,1006.8 C 339.1,1010.9 338.3,1018.5 338.3,1025 C 338.9,1031 342.4,1037.3 348.5,1039.3 C 352.9,1040.6 357.8,1040.9 362.1,1038.9 C 364.9,1036.8 368.1,1034.2 367.8,1030.4 C 365.7,1029.4 363.2,1028.8 361,1030 C 359,1031.4 357.5,1034 354.7,1033.7 C 350.6,1033.6 346.8,1029.1 347.8,1025 C 354.8,1024.5 361.8,1024.5 368.7,1023.5 C 369.1,1017.8 368,1011.5 363.6,1007.4 C 358.1,1004.1 350.3,1002.9 344.7,1006.8 M 387.1,1007.7 C 384.4,1006.1 381.6,1004.8 378.4,1005.2 C 378,1012 378.8,1018.9 377.7,1025.6 C 377.1,1029.9 377.3,1034.2 378.8,1038.3 C 380.6,1038.6 382.5,1038.7 384.3,1038.5 C 386.4,1031 385.2,1023.2 385.5,1015.5 C 386.9,1012.3 390.8,1011.3 394,1010.8 C 397,1011.7 399.1,1014.8 399.3,1018 C 399.6,1024.8 398.8,1031.7 399.5,1038.5 C 401.6,1038.7 403.7,1038.8 405.7,1038.8 C 407.2,1035.5 406.6,1031.8 406.3,1028.4 C 405.6,1023.4 406.8,1018.3 408.6,1013.7 C 410.7,1011.1 415.3,1009.2 417.9,1012.1 C 420,1014.2 419.3,1017.4 419.4,1020 C 419,1026 420.3,1032.3 418.5,1038.2 C 421.2,1039 424.1,1039 426.7,1037.7 C 426.6,1029.8 426.7,1021.9 426.7,1014 C 426.7,1010.9 425.2,1008 423.2,1005.8 C 421.3,1004 418.4,1004.4 416,1004.3 C 412.2,1003.9 409.4,1006.7 406.2,1008.2 C 403.4,1006.4 400.5,1004 396.9,1004.3 C 393.2,1003.8 390.6,1007.4 387.1,1007.7 M 443.5,1004.6 C 440.9,1006.8 436.7,1009.3 437.5,1013.2 C 439.3,1013.7 441.1,1014.2 442.9,1014.6 C 446.1,1011.6 450.3,1009.2 454.8,1011 C 458.1,1012.7 456.1,1017.8 452.8,1018 C 447.3,1019 440.9,1019.4 436.9,1023.8 C 435.8,1027.2 436.2,1031 436.5,1034.5 C 438.6,1038.2 442.9,1040 447,1039.7 C 450.3,1039.9 453.1,1038 456.2,1037.3 C 459.4,1037.7 462.8,1040 465.8,1037.8 C 463.9,1028.8 464.7,1019.5 464.5,1010.4 C 463.1,1007.7 460.3,1005.8 457.6,1004.6 C 452.9,1004.1 448.2,1004.1 443.5,1004.6 M 493.5,1009.1 C 493.4,1019 493.4,1028.9 493.4,1038.8 C 496.1,1038.7 498.8,1038.4 501.3,1037.3 C 501.8,1031.9 501.6,1026.4 501.3,1021 C 501.1,1016.7 502.9,1011.6 507.3,1010.1 C 510.8,1008.4 514.6,1011 516.1,1014.1 C 516.6,1018.4 516.2,1022.8 517,1027.1 C 517.6,1030.6 515.9,1034.3 517.3,1037.7 C 519.3,1037.5 522,1038.3 523.3,1036.3 C 524,1033.9 523.7,1031.4 523.6,1029 C 523.2,1022.6 524.1,1016 522,1009.8 C 520.6,1007.7 518.6,1006 516.3,1004.7 C 511.8,1003.3 507.1,1004.8 503.2,1007.2 C 501.1,1005.8 499,1003.8 496.3,1004.3 C 494,1004.4 493.5,1007.2 493.5,1009.1 M 158.5,1005.5 C 158.6,1011 159.8,1016.3 161.8,1021.3 C 164.2,1027.2 165.7,1033.4 167.8,1039.3 C 170.6,1039.5 173.5,1040.2 176.1,1039.1 C 179.1,1033.6 179.5,1027.1 181.9,1021.4 C 182.5,1021.7 183.7,1022.3 184.3,1022.6 C 186.6,1027.4 186.3,1033.2 189.3,1037.7 C 191.3,1040.7 195.2,1039.6 198.1,1039.2 C 200.2,1033.1 202,1027 203.7,1020.8 C 205.2,1016.1 206.9,1011.3 206.8,1006.3 C 204.4,1006.2 202,1006.3 199.6,1006.4 C 198.1,1011.4 197.6,1016.7 195.8,1021.7 C 195.4,1023.1 194.3,1024 193,1024.7 C 190,1020.4 188.9,1015.2 188.5,1010.1 C 188.6,1008.1 187.3,1006.3 185.5,1005.5 C 182.8,1005 179.6,1005.4 177.9,1007.8 C 176,1013.6 177.5,1020.6 173,1025.4 C 172.6,1025.3 171.8,1024.9 171.4,1024.8 C 170.2,1018.9 167.9,1013.3 166.4,1007.5 C 165.3,1004.2 161.1,1005.6 158.5,1005.5 M 213.4,1006.3 C 213.4,1017.4 213.4,1028.5 213.4,1039.6 C 216.5,1039.7 219.5,1039.7 222.6,1039.6 C 222.5,1031.1 222.7,1022.6 222.5,1014.1 C 222.2,1011.3 222.2,1008 220.2,1005.8 C 218,1004.8 215.5,1005.5 213.4,1006.3 M 475.4,1005.2 C 475.4,1016 475.2,1026.8 475.5,1037.5 C 477.8,1037.8 480.2,1037.8 482.5,1037.5 C 482.7,1026.9 483.3,1016.1 481.3,1005.5 C 479.3,1005.3 477.4,1005.2 475.4,1005.2 M 535.6,1005.5 C 534.9,1012.6 535.6,1019.8 535.4,1027 C 535.5,1030.6 534.7,1034.4 536.3,1037.8 C 538.4,1037.6 541.8,1038.3 542.5,1035.6 C 543,1029.4 542.4,1023.2 542.7,1017 C 542.4,1013.7 543.3,1010.2 541.8,1007.1 C 540.8,1004.5 537.7,1005.4 535.6,1005.5 M 883.3,1012.3 C 883.8,1012.8 883.8,1012.8 883.3,1012.3 M 884.3,1020.5 C 883.1,1021.4 884.7,1023.3 885.8,1022.5 C 886.9,1021.6 885.4,1019.6 884.3,1020.5 M 884.3,1039.1 C 884.4,1042.5 887.2,1037.5 884.3,1039.1 z"
     id="path2816"
     style="opacity:1;fill:#ffff00;stroke:#ffff00;stroke-width:0.09375" />
  <path
     d="M 449.4,30.6 C 453.9,29.8 458.5,31.1 463,31.4 C 465.9,31.5 468.8,32.1 471.1,33.9 C 473.4,35.9 474.8,38.9 477.5,40.5 C 479.3,41.6 481.4,42.6 482.1,44.8 C 483.8,49.1 487.4,52.2 490,55.9 C 492.8,59.8 492.8,65.2 496.7,68.4 C 501.6,72.6 502.4,79.6 506.2,84.7 C 510,89.6 511,96.1 515.4,100.6 C 517.8,102.9 518.5,106.2 520,109.1 C 522.9,113.4 525.2,118.2 528.8,122 C 532.7,128.9 536,136.1 540.2,142.8 C 593.23651,234.99361 634.36188,300.01552 670.74042,363.02932 C 844.80417,664.53727 848.9,674.9 848.9,674.9 C 848.9,674.9 853,679.7 854.2,682.7 C 858.3,693.1 867.7,700.9 869.5,712.2 C 869.9,718.7 870.2,725.5 867.2,731.4 C 862.9,739.6 854.5,745.1 845.8,747.5 C 832.5,748 819.2,747.2 806,747.8 C 799.1,748.9 792,748.4 785,748.5 C 566.33147,748.5154 348.29184,752.616 130,752.5 C 122.3,752.6 114.6,752.2 107,753.1 C 98.4,752.2 89.6,752.7 81,752.6 C 74.3,753.1 68.1,749.6 62.6,746.3 C 57.7,741.5 52.7,736.4 50.4,729.8 C 46.7,720.6 48.4,710.1 52.5,701.4 C 411.00667,70.095705 56.128232,699.06155 413.7,66.7 C 420.1,56.6 424,44.4 433.5,36.5 C 438.2,33.2 443.9,31.9 449.4,30.6 M 443.3,121.4 C 336.46685,311.15325 226.66941,499.37272 120.7,689.8 C 119,693.1 115.6,696.1 116.8,700.2 C 121.2,699.9 125.6,699.6 130,700.4 C 789.38071,695.30613 130.68759,697.92845 792.1,696.6 C 795.6,696.3 799.3,696.9 802.8,696 C 805.3,695 805.3,691.3 803.4,689.6 C 799.6,685.7 798.6,680.1 794.7,676.3 C 792,673.6 791.6,669.6 789.4,666.7 C 681.71048,491.06328 584.64561,310.11466 476.5,134.5 C 472.9,129.5 470.3,123.9 467.7,118.4 C 466.6,115.7 463.5,114.5 462.5,111.7 C 460.8,107.9 458.7,104.4 456,101.4 C 450.2,106.9 447.5,114.7 443.3,121.4 z"
     id="path2818"
     style="opacity:1;fill:#000000;stroke:#000000;stroke-width:0.09375" />
  <path
     d="M 443.3,121.4 C 447.5,114.7 450.2,106.9 456,101.4 C 458.7,104.4 460.8,107.9 462.5,111.7 C 463.5,114.5 466.6,115.7 467.7,118.4 C 470.3,123.9 472.9,129.5 476.5,134.5 C 482.7,143.6 487.4,153.6 493.2,162.9 C 496.5,167.4 498,173 501.8,177.2 C 505.9,184.2 509.8,191.3 513.7,198.5 C 518.2,205.3 522.4,212.4 526.8,219.2 C 530.7,225.4 533,232.6 537.7,238.3 C 546.3,250.7 551.5,265.2 560.9,277.2 C 563.6,281.6 564.6,286.9 568.3,290.8 C 574,299.8 579.1,309.3 584.7,318.4 C 587.7,324.5 592.1,329.8 595.2,335.9 C 597.4,340.2 601.1,343.6 603.2,348 C 608.9,361.7 617.5,373.8 624.5,386.8 C 630.1,394.7 633.7,403.7 639.5,411.5 C 645,420.5 650.8,429.3 655.3,438.8 C 660.2,446.1 664.2,453.9 668.4,461.6 C 671.6,466.2 673.5,471.6 676.9,476.1 C 678.7,478.4 680.2,481.1 681.4,483.8 C 684.7,491.7 690.9,498.1 693.8,506.3 C 695.1,510.6 698.8,513.5 700.8,517.4 C 706.9,528.1 712.6,539.1 720.1,548.9 C 727.2,561.1 733.8,573.7 741.6,585.5 C 744.2,589.4 745.7,593.9 748.2,597.9 C 750.8,602.2 754.2,606.1 756.4,610.7 C 758.6,615.9 762.1,620.5 764.6,625.5 C 768.1,630.4 771.5,635.4 774.3,640.7 C 776.8,645.6 778.3,651.1 781.5,655.6 C 784.2,659.3 786.7,663 789.4,666.7 C 791.6,669.6 792,673.6 794.7,676.3 C 798.6,680.1 799.6,685.7 803.4,689.6 C 805.3,691.3 805.3,695 802.8,696 C 799.3,696.9 795.6,696.3 792.1,696.6 C 779.4,698.1 766.7,697.1 754,697.4 C 748.2,697.6 742.4,696.9 736.7,697.9 C 732.5,698.9 728.4,696.8 724.2,697.4 C 712.9,699.1 701.4,698.2 690,698.4 C 687.1,698.7 684.7,696.4 681.9,697 C 676.3,697.9 670.7,697 665.2,697.8 C 658.2,698.9 651.1,698.1 644,698.5 C 632.4,698.6 620.7,698.1 609,698.5 C 602,699.2 595,699.3 588,698.4 C 559.7,698.3 531.3,698.4 503,698.4 C 493.4,698.5 483.7,698.1 474.2,699.2 C 469.5,698.4 464.8,698 460,698.5 C 455.1,699.2 450,698.3 445,699.2 C 436.7,699.7 428.3,699.2 420,699.4 C 414.3,699.6 408.7,698 403,698.4 C 391,698.8 379,697.7 367,699.3 C 357.3,699.3 347.7,699.8 338,699.3 C 329.3,700.4 320.7,699 312,699.4 C 305,698.8 298.1,701.4 291.1,700 C 288.2,699.4 285.4,700.2 282.5,700.4 C 231.7,700.3 180.8,700.4 130,700.4 C 125.6,699.6 121.2,699.9 116.8,700.2 C 115.6,696.1 119,693.1 120.7,689.8 C 123.3,684.5 127.1,679.7 128.9,674 C 132.3,667.2 135.9,660.5 140.1,654.2 C 143.3,649.2 144.6,643.2 148.9,639 C 153.1,632.5 157.8,626.2 160.9,619 C 163,614.9 166.4,611.5 168.1,607.2 C 170.4,601.7 174.1,597 176.4,591.5 C 177.6,588.8 179.2,586.3 181,584 C 183.5,580.9 183.8,576.6 186.4,573.5 C 188.9,570.5 191.4,567.5 192.8,563.8 C 195.6,556.7 200.7,550.9 203.9,544 C 210.9,531.4 217.8,518.7 225.2,506.3 C 232.5,492.5 241.5,479.5 248.2,465.2 C 250.1,461.6 252.3,458.1 254.6,454.7 C 259.2,447.7 262.4,439.9 266.8,432.9 C 271.1,427.1 273,420 277.2,414.2 C 280.7,409.4 282.8,403.9 285.9,398.9 C 290.9,390.6 295.2,381.8 300.6,373.6 C 306.2,362.5 312.6,351.7 318.9,340.9 C 320.9,336.8 323,332.6 325.7,328.8 C 328.9,324.1 330.7,318.6 333.7,313.9 C 335.6,310.8 338.1,308.1 339.5,304.8 C 343.4,295.9 348.8,287.9 353.2,279.4 C 359.3,266.8 367.9,255.7 374,243.1 C 383.8,227 392.3,210.2 401.9,193.9 C 409.8,182.2 415.2,168.9 422.9,157 C 425.3,150.5 430.4,145.5 432.8,139 C 436.2,133.1 439.3,127 443.3,121.4 M 424.5,281.6 C 424.2,293.7 424.4,305.9 424.4,318 C 424.3,321.8 426.5,327.6 422,329.6 C 415.1,323 415.4,312.1 408.8,305.3 C 406.5,305.6 404.3,306.4 402.3,307.4 C 402.2,309.9 402.4,312.5 403.3,314.8 C 405.8,321.4 409.4,327.5 411.9,334.1 C 411.6,335.8 409.7,336.9 408.1,336.3 C 404.4,334.2 402.2,330.5 399.7,327.3 C 398,325 395.3,323.7 393.3,321.8 C 391.6,320.1 390.1,318.3 388.4,316.7 C 383.3,312.5 379.9,306.3 373.8,303.4 C 370.9,303.9 368.8,306.7 367.3,309.2 C 368.1,312.6 372,314.2 374,317 C 376.3,320.4 379.7,322.7 382.8,325.1 C 385.8,329.1 389.6,332.4 393,336 C 395.6,338.5 399.2,340.3 400.6,343.9 C 399.7,344.8 398.9,345.6 398,346.5 C 393.1,344.5 388.1,342.5 383.9,339.3 C 380.3,337.5 376.7,335.3 372.6,335.3 C 371.2,338.8 369.7,342.3 368.3,345.8 C 371.5,346.8 374.8,347.5 377.7,349.2 C 382.5,351.7 387.8,353.2 392.9,355.1 C 395.3,355.6 394.1,358.4 394.1,360 C 378.9,361.2 363.6,359.3 348.4,361.3 C 348.2,364.4 348.2,367.4 348.5,370.5 C 362.5,370.6 376.6,370.4 390.6,370.6 C 391.9,370.5 393.5,371.3 393.5,372.9 C 392.4,374.6 390.5,375.2 388.8,376 C 384.1,377.9 379.5,380 374.9,382.1 C 373.3,382.9 371.5,383.7 370.5,385.3 C 370.4,387.9 371.7,391 374.5,391.5 C 377.7,392.2 380.6,390.2 383.5,389.4 C 387.3,388.3 390.8,386.8 394.3,385 C 396,383.9 397.8,385.2 399.3,386.1 C 400.2,390.2 395.8,392 393.5,394.5 C 387.1,400.8 380.4,406.8 374.7,413.7 C 373,415.8 370.4,417.2 369.1,419.7 C 371.2,422.3 373.5,424.7 376.2,426.8 C 379.7,425 380.9,421.1 383,418 C 384.7,415.1 387.7,413.2 390.5,411.5 C 396.9,407.6 401.1,401.1 407,396.5 C 407.8,396.6 409.5,396.7 410.3,396.8 C 410.7,401.6 407.5,405.5 406,409.8 C 404.6,414.2 401.6,418.5 402.6,423.2 C 405.3,424 408.4,425.5 411.1,424.1 C 413.3,418.1 416.8,412.5 418,406.2 C 418.5,403.3 420.8,399.9 424.1,400.7 C 424.8,417 424,433.2 424.6,449.5 C 428.2,449.7 431.9,449.9 435.3,448.5 C 437.3,442.4 435.1,436.2 435.5,430 C 435.7,421 435.3,412 435.6,403 C 435.4,400.9 437,399.5 439,399.4 C 441.3,403.2 442.4,407.6 444.6,411.5 C 447,415.9 448.5,420.6 449.9,425.4 C 453.2,426 456.4,424.8 459.1,423.1 C 460.5,420.2 459.1,416.9 457.6,414.4 C 453.9,408.5 451.6,402 448.7,395.9 C 449.4,395 450.2,394.2 450.9,393.4 C 459.1,399 464.7,407.3 472,413.9 C 479.3,420 485.1,427.7 493.2,432.8 C 506.6,447.3 520.4,461.7 534.5,475.5 C 537.8,478.7 542.3,480.5 544.8,484.4 C 546.3,486.6 545.2,490 542.7,490.8 C 540.3,491.6 537.8,491.6 535.4,491.6 C 531.6,492 528.7,488.6 524.9,488.5 C 520.3,488.2 516,486.6 511.6,485.4 C 507.3,484.2 503.5,481.5 499.3,480.1 C 492.9,478.7 486.9,476.1 480.6,474.4 C 474.4,471.6 467.4,472.3 460.8,470.7 C 456.9,470.6 453.2,472 449.4,472.7 C 445,473.4 442,476.9 438.9,479.9 C 436.6,482.4 433.9,485.2 434.3,488.9 C 434,491.5 436.6,493.2 439,492.7 C 443.1,493 445.7,489.3 449.1,487.7 C 452.3,487.6 455.8,489.5 458.8,487.7 C 461.3,486.8 464,484.6 466.7,485.9 C 470.9,488.8 474.1,493 478.6,495.3 C 484.2,498 489,502.3 495.1,503.7 C 501.5,505.3 507.9,507.2 513.9,510 C 515.9,510.8 517,512.8 516.3,514.9 C 514.2,518.9 509.6,520.7 506,523.1 C 499.5,526.7 492.2,531 484.5,528.7 C 476.2,528.5 468,527.5 459.8,526.6 C 454.4,526.6 449.4,524.3 444,524.4 C 439.4,524.4 434.7,524.2 430.1,524.5 C 424.3,525.2 419.6,529.2 414.3,531.5 C 409.5,533.3 406.7,537.8 402.6,540.6 C 397.7,544 394,548.7 389.5,552.6 C 382.4,558.8 376.6,566.4 368.7,571.7 C 362.9,575.7 359.2,581.9 354.9,587.3 C 352.9,587.2 350.3,588.1 348.8,586.3 C 345.7,582.1 344.7,575.8 339.5,573.5 C 337.4,573.3 334.1,572.5 333.2,575.1 C 329.2,584 329.2,594.7 333.8,603.4 C 335.2,605.9 337.9,607.4 339.1,610.1 C 339,613.3 338.2,617 340.2,619.8 C 342.6,622.3 346.1,624 349.6,623.5 C 353.8,622.6 356.3,618.8 359.7,616.6 C 362.8,615.5 366.2,615.5 369.1,614.1 C 375.8,611.1 381.7,606.9 387.4,602.4 C 392.2,596.9 397.6,591.9 402.5,586.6 C 407.8,581.8 413.3,577.3 417.8,571.8 C 420.2,568.8 423.8,567 426.9,564.8 C 432.9,560.4 440.7,559 448,558.6 C 450.5,558.1 453.1,560.3 452.3,562.9 C 450.3,567 445.2,567.5 441.8,569.9 C 439.2,571.9 436.3,573.2 433.5,574.6 C 428.7,577.6 426.2,583.1 425.8,588.6 C 425.4,593.7 424.5,598.8 424.4,604 C 424.4,609.7 422.7,615.2 422,620.7 C 421.5,625.7 418.3,629.8 418,634.8 C 416.2,641.8 417,649.6 413.1,656 C 411.4,658.9 409,662.5 405.2,662.5 C 399.6,662.8 393.7,661.4 388.3,663.3 C 388.3,665 388.1,666.8 388.6,668.5 C 390.9,671.7 393.9,674.7 397.7,676.2 C 400.7,677.4 403.6,679.5 407,679.6 C 411.4,680 415.8,681.1 420.2,680.1 C 428.4,678.4 436.5,681.2 444.6,681.6 C 447.9,679.5 448,675.4 448.7,672 C 449.2,669.8 451.8,668.4 451.6,666 C 451.6,655.7 451.4,645.3 451.6,635 C 452.2,628.9 453.5,622.8 454.6,616.8 C 456.7,609.1 458.6,600.4 465.4,595.4 C 468,592.5 472,594 475.4,593.2 C 477,592.2 478.4,590.9 480.1,589.9 C 482.6,589.5 485.2,589.7 487.7,589.4 C 499.2,587.1 510.4,583.7 521.1,578.9 C 526.6,576.3 530.8,571.6 536.1,568.8 C 542.2,569.5 548.4,570.2 554.6,569.3 C 558.4,568.6 561.8,566.5 565.6,565.5 C 569.2,564.5 573.2,564.4 576.5,562.4 C 583.2,558.7 589.1,553.1 596.8,551.6 C 599.6,550.9 603.2,550 605.1,552.9 C 610.4,560.1 611,570 617.7,576.3 C 621.8,579.9 623.5,585.6 623.5,591 C 623.7,599.2 619.4,606.8 619.4,615 C 619.3,619 619.8,623.2 618.1,627 C 617.4,628.9 615.2,629.7 613.7,630.8 C 610.5,632.6 608.9,635.9 606.5,638.5 C 604.5,640.9 601.7,642.5 599.5,644.6 C 599.1,646.2 599.1,648.4 600.9,649 C 606,651.5 612.2,654 617.8,651.7 C 621,650.5 624.5,649.5 626.8,646.8 C 630.5,643.3 629.9,637.7 632.3,633.5 C 633.6,630.9 636.1,629.2 637.3,626.6 C 638.9,620.4 642.3,614.8 643.4,608.5 C 645.4,599.6 650.3,590.8 648.2,581.6 C 646.4,577.8 646.8,573.2 644.2,569.8 C 639.3,562.9 634.6,555.7 630.8,548.1 C 629.2,542.5 625.9,537 626.6,531 C 626.7,529.1 628.4,526.7 630.6,527.4 C 635.6,528.8 640.8,529.2 646,529.6 C 649.1,529.9 651.4,527.4 653.4,525.4 C 657.6,520.6 661.6,514.7 660.7,508 C 661.2,502.3 656.5,498.2 654.5,493.3 C 652.7,488.7 646.1,490.3 643.3,486.7 C 641.5,484.5 640.5,481.7 638.4,479.7 C 635.4,479.4 632.4,482.3 629.4,480.8 C 625.5,479.3 622.5,476.2 618.7,474.6 C 616.2,474.5 613.4,474.9 611.3,476.3 C 609,480.3 611.4,487.2 606.4,489.6 C 603.6,491.5 600.9,488.7 598.4,487.8 C 591.9,484.5 583.9,487.2 577.9,483 C 579.5,479.4 582.7,477.1 585.3,474.4 C 588.4,471.3 587.6,466.6 587.6,462.7 C 586.2,462.3 584.9,461.9 583.6,461.4 C 582.1,459.4 582.8,456.7 582.6,454.4 C 581.1,454.7 579.5,455 577.9,455.5 C 575.9,453.6 575.9,450.7 575.3,448.2 C 574.1,448.8 572.9,449.4 571.7,450 C 567.8,448.4 569.2,443.5 567.4,440.5 C 565.7,437.6 564.7,434.4 564.3,431.1 C 559.2,433.3 562.6,439.7 561,443.8 C 559.4,446 557.1,443.9 555.3,443.2 C 555.4,446.8 555.5,450.4 555.1,454 C 553.1,453.8 551.2,453.6 549.2,453.4 C 549.5,455.6 549.8,457.8 549.9,460 C 549.1,461.5 546.9,461.4 545.5,462.1 C 545.7,464.7 548.2,470.4 544,470.4 C 539.3,467 536.7,461.5 532.2,457.8 C 519.7,447 509.3,434.1 496.5,423.6 C 488.2,415.1 479.2,407.5 471.2,398.8 C 468,395.3 463.8,392.6 461.1,388.6 C 459.6,387.1 461.8,384 463.7,385.1 C 468.6,386.7 472.8,389.5 477.6,391.3 C 480.9,392.6 484.4,395.9 488.1,394.2 C 490.2,391.7 490.9,388.4 491.7,385.4 C 487,382.6 481.7,381 477,378.2 C 474,376.5 469.9,376.6 467.6,373.9 C 466.7,370.2 471.3,369.6 474,369.6 C 486.3,369.6 498.7,369.6 511,369.6 C 512.9,369.7 514.9,369.5 516.6,368.7 C 516.7,365.7 516.7,362.6 516.4,359.5 C 501.6,359.1 486.8,359.6 472,359.4 C 469.9,359.7 468.5,357.9 468.3,355.9 C 474.6,352.1 482.1,350.9 488.5,347.4 C 493,344.8 489,339.6 487.4,336.4 C 478.1,336.4 471.1,345 461.7,344.3 C 461.8,342.8 462.3,341.4 463.2,340.2 C 468.3,333.1 475.2,327.5 481.1,321.1 C 483.9,317.9 487.2,315.2 490,312 C 491.2,310.7 490.7,308.7 489.5,307.5 C 487.7,305.6 485.6,302.5 482.6,303.5 C 473.7,312.3 465.4,321.7 456.4,330.4 C 454.8,331.8 453.2,333.8 450.8,333.3 C 449.6,327.8 453.5,323.1 454.7,317.9 C 455.5,314.2 457.6,311 459.8,307.9 C 459,306.9 458.2,305.6 456.7,305.6 C 453.9,305.4 451.6,304 449.7,302.1 C 446.5,306.4 445.5,311.7 443.6,316.5 C 441.6,321.5 440.5,326.7 438.3,331.5 C 436.4,331.9 433.6,331.6 433.7,329 C 433.4,317.1 434,305.1 433.3,293.2 C 432.9,289.2 433.5,285.3 433.8,281.4 C 430.7,281.2 427.6,281.2 424.5,281.6 z"
     id="path2820"
     style="opacity:1;fill:#ffff00;stroke:#ffff00;stroke-width:0.09375" />
  <path
     d="M 424.5,281.6 C 427.6,281.2 430.7,281.2 433.8,281.4 C 433.5,285.3 432.9,289.2 433.3,293.2 C 434,305.1 433.4,317.1 433.7,329 C 433.6,331.6 436.4,331.9 438.3,331.5 C 440.5,326.7 441.6,321.5 443.6,316.5 C 445.5,311.7 446.5,306.4 449.7,302.1 C 451.6,304 453.9,305.4 456.7,305.6 C 458.2,305.6 459,306.9 459.8,307.9 C 457.6,311 455.5,314.2 454.7,317.9 C 453.5,323.1 449.6,327.8 450.8,333.3 C 453.2,333.8 454.8,331.8 456.4,330.4 C 465.4,321.7 473.7,312.3 482.6,303.5 C 485.6,302.5 487.7,305.6 489.5,307.5 C 490.7,308.7 491.2,310.7 490,312 C 487.2,315.2 483.9,317.9 481.1,321.1 C 475.2,327.5 468.3,333.1 463.2,340.2 C 462.3,341.4 461.8,342.8 461.7,344.3 C 471.1,345 478.1,336.4 487.4,336.4 C 489,339.6 493,344.8 488.5,347.4 C 482.1,350.9 474.6,352.1 468.3,355.9 C 468.5,357.9 469.9,359.7 472,359.4 C 486.8,359.6 501.6,359.1 516.4,359.5 C 516.7,362.6 516.7,365.7 516.6,368.7 C 514.9,369.5 512.9,369.7 511,369.6 C 498.7,369.6 486.3,369.6 474,369.6 C 471.3,369.6 466.7,370.2 467.6,373.9 C 469.9,376.6 474,376.5 477,378.2 C 481.7,381 487,382.6 491.7,385.4 C 490.9,388.4 490.2,391.7 488.1,394.2 C 484.4,395.9 480.9,392.6 477.6,391.3 C 472.8,389.5 468.6,386.7 463.7,385.1 C 461.8,384 459.6,387.1 461.1,388.6 C 463.8,392.6 468,395.3 471.2,398.8 C 479.2,407.5 488.2,415.1 496.5,423.6 C 509.3,434.1 519.7,447 532.2,457.8 C 536.7,461.5 539.3,467 544,470.4 C 548.2,470.4 545.7,464.7 545.5,462.1 C 546.9,461.4 549.1,461.5 549.9,460 C 549.8,457.8 549.5,455.6 549.2,453.4 C 551.2,453.6 553.1,453.8 555.1,454 C 555.5,450.4 555.4,446.8 555.3,443.2 C 557.1,443.9 559.4,446 561,443.8 C 562.6,439.7 559.2,433.3 564.3,431.1 C 564.7,434.4 565.7,437.6 567.4,440.5 C 569.2,443.5 567.8,448.4 571.7,450 C 572.9,449.4 574.1,448.8 575.3,448.2 C 575.9,450.7 575.9,453.6 577.9,455.5 C 579.5,455 581.1,454.7 582.6,454.4 C 582.8,456.7 582.1,459.4 583.6,461.4 C 584.9,461.9 586.2,462.3 587.6,462.7 C 587.6,466.6 588.4,471.3 585.3,474.4 C 582.7,477.1 579.5,479.4 577.9,483 C 583.9,487.2 591.9,484.5 598.4,487.8 C 600.9,488.7 603.6,491.5 606.4,489.6 C 611.4,487.2 609,480.3 611.3,476.3 C 613.4,474.9 616.2,474.5 618.7,474.6 C 622.5,476.2 625.5,479.3 629.4,480.8 C 632.4,482.3 635.4,479.4 638.4,479.7 C 640.5,481.7 641.5,484.5 643.3,486.7 C 646.1,490.3 652.7,488.7 654.5,493.3 C 656.5,498.2 661.2,502.3 660.7,508 C 661.6,514.7 657.6,520.6 653.4,525.4 C 651.4,527.4 649.1,529.9 646,529.6 C 640.8,529.2 635.6,528.8 630.6,527.4 C 628.4,526.7 626.7,529.1 626.6,531 C 625.9,537 629.2,542.5 630.8,548.1 C 634.6,555.7 639.3,562.9 644.2,569.8 C 646.8,573.2 646.4,577.8 648.2,581.6 C 650.3,590.8 645.4,599.6 643.4,608.5 C 642.3,614.8 638.9,620.4 637.3,626.6 C 636.1,629.2 633.6,630.9 632.3,633.5 C 629.9,637.7 630.5,643.3 626.8,646.8 C 624.5,649.5 621,650.5 617.8,651.7 C 612.2,654 606,651.5 600.9,649 C 599.1,648.4 599.1,646.2 599.5,644.6 C 601.7,642.5 604.5,640.9 606.5,638.5 C 608.9,635.9 610.5,632.6 613.7,630.8 C 615.2,629.7 617.4,628.9 618.1,627 C 619.8,623.2 619.3,619 619.4,615 C 619.4,606.8 623.7,599.2 623.5,591 C 623.5,585.6 621.8,579.9 617.7,576.3 C 611,570 610.4,560.1 605.1,552.9 C 603.2,550 599.6,550.9 596.8,551.6 C 589.1,553.1 583.2,558.7 576.5,562.4 C 573.2,564.4 569.2,564.5 565.6,565.5 C 561.8,566.5 558.4,568.6 554.6,569.3 C 548.4,570.2 542.2,569.5 536.1,568.8 C 530.8,571.6 526.6,576.3 521.1,578.9 C 510.4,583.7 499.2,587.1 487.7,589.4 C 485.2,589.7 482.6,589.5 480.1,589.9 C 478.4,590.9 477,592.2 475.4,593.2 C 472,594 468,592.5 465.4,595.4 C 458.6,600.4 456.7,609.1 454.6,616.8 C 453.5,622.8 452.2,628.9 451.6,635 C 451.4,645.3 451.6,655.7 451.6,666 C 451.8,668.4 449.2,669.8 448.7,672 C 448,675.4 447.9,679.5 444.6,681.6 C 436.5,681.2 428.4,678.4 420.2,680.1 C 415.8,681.1 411.4,680 407,679.6 C 403.6,679.5 400.7,677.4 397.7,676.2 C 393.9,674.7 390.9,671.7 388.6,668.5 C 388.1,666.8 388.3,665 388.3,663.3 C 393.7,661.4 399.6,662.8 405.2,662.5 C 409,662.5 411.4,658.9 413.1,656 C 417,649.6 416.2,641.8 418,634.8 C 418.3,629.8 421.5,625.7 422,620.7 C 422.7,615.2 424.4,609.7 424.4,604 C 424.5,598.8 425.4,593.7 425.8,588.6 C 426.2,583.1 428.7,577.6 433.5,574.6 C 436.3,573.2 439.2,571.9 441.8,569.9 C 445.2,567.5 450.3,567 452.3,562.9 C 453.1,560.3 450.5,558.1 448,558.6 C 440.7,559 432.9,560.4 426.9,564.8 C 423.8,567 420.2,568.8 417.8,571.8 C 413.3,577.3 407.8,581.8 402.5,586.6 C 397.6,591.9 392.2,596.9 387.4,602.4 C 381.7,606.9 375.8,611.1 369.1,614.1 C 366.2,615.5 362.8,615.5 359.7,616.6 C 356.3,618.8 353.8,622.6 349.6,623.5 C 346.1,624 342.6,622.3 340.2,619.8 C 338.2,617 339,613.3 339.1,610.1 C 337.9,607.4 335.2,605.9 333.8,603.4 C 329.2,594.7 329.2,584 333.2,575.1 C 334.1,572.5 337.4,573.3 339.5,573.5 C 344.7,575.8 345.7,582.1 348.8,586.3 C 350.3,588.1 352.9,587.2 354.9,587.3 C 359.2,581.9 362.9,575.7 368.7,571.7 C 376.6,566.4 382.4,558.8 389.5,552.6 C 394,548.7 397.7,544 402.6,540.6 C 406.7,537.8 409.5,533.3 414.3,531.5 C 419.6,529.2 424.3,525.2 430.1,524.5 C 434.7,524.2 439.4,524.4 444,524.4 C 449.4,524.3 454.4,526.6 459.8,526.6 C 468,527.5 476.2,528.5 484.5,528.7 C 492.2,531 499.5,526.7 506,523.1 C 509.6,520.7 514.2,518.9 516.3,514.9 C 517,512.8 515.9,510.8 513.9,510 C 507.9,507.2 501.5,505.3 495.1,503.7 C 489,502.3 484.2,498 478.6,495.3 C 474.1,493 470.9,488.8 466.7,485.9 C 464,484.6 461.3,486.8 458.8,487.7 C 455.8,489.5 452.3,487.6 449.1,487.7 C 445.7,489.3 443.1,493 439,492.7 C 436.6,493.2 434,491.5 434.3,488.9 C 433.9,485.2 436.6,482.4 438.9,479.9 C 442,476.9 445,473.4 449.4,472.7 C 453.2,472 456.9,470.6 460.8,470.7 C 467.4,472.3 474.4,471.6 480.6,474.4 C 486.9,476.1 492.9,478.7 499.3,480.1 C 503.5,481.5 507.3,484.2 511.6,485.4 C 516,486.6 520.3,488.2 524.9,488.5 C 528.7,488.6 531.6,492 535.4,491.6 C 537.8,491.6 540.3,491.6 542.7,490.8 C 545.2,490 546.3,486.6 544.8,484.4 C 542.3,480.5 537.8,478.7 534.5,475.5 C 520.4,461.7 506.6,447.3 493.2,432.8 C 485.1,427.7 479.3,420 472,413.9 C 464.7,407.3 459.1,399 450.9,393.4 C 450.2,394.2 449.4,395 448.7,395.9 C 451.6,402 453.9,408.5 457.6,414.4 C 459.1,416.9 460.5,420.2 459.1,423.1 C 456.4,424.8 453.2,426 449.9,425.4 C 448.5,420.6 447,415.9 444.6,411.5 C 442.4,407.6 441.3,403.2 439,399.4 C 437,399.5 435.4,400.9 435.6,403 C 435.3,412 435.7,421 435.5,430 C 435.1,436.2 437.3,442.4 435.3,448.5 C 431.9,449.9 428.2,449.7 424.6,449.5 C 424,433.2 424.8,417 424.1,400.7 C 420.8,399.9 418.5,403.3 418,406.2 C 416.8,412.5 413.3,418.1 411.1,424.1 C 408.4,425.5 405.3,424 402.6,423.2 C 401.6,418.5 404.6,414.2 406,409.8 C 407.5,405.5 410.7,401.6 410.3,396.8 C 409.5,396.7 407.8,396.6 407,396.5 C 401.1,401.1 396.9,407.6 390.5,411.5 C 387.7,413.2 384.7,415.1 383,418 C 380.9,421.1 379.7,425 376.2,426.8 C 373.5,424.7 371.2,422.3 369.1,419.7 C 370.4,417.2 373,415.8 374.7,413.7 C 380.4,406.8 387.1,400.8 393.5,394.5 C 395.8,392 400.2,390.2 399.3,386.1 C 397.8,385.2 396,383.9 394.3,385 C 390.8,386.8 387.3,388.3 383.5,389.4 C 380.6,390.2 377.7,392.2 374.5,391.5 C 371.7,391 370.4,387.9 370.5,385.3 C 371.5,383.7 373.3,382.9 374.9,382.1 C 379.5,380 384.1,377.9 388.8,376 C 390.5,375.2 392.4,374.6 393.5,372.9 C 393.5,371.3 391.9,370.5 390.6,370.6 C 376.6,370.4 362.5,370.6 348.5,370.5 C 348.2,367.4 348.2,364.4 348.4,361.3 C 363.6,359.3 378.9,361.2 394.1,360 C 394.1,358.4 395.3,355.6 392.9,355.1 C 387.8,353.2 382.5,351.7 377.7,349.2 C 374.8,347.5 371.5,346.8 368.3,345.8 C 369.7,342.3 371.2,338.8 372.6,335.3 C 376.7,335.3 380.3,337.5 383.9,339.3 C 388.1,342.5 393.1,344.5 398,346.5 C 398.9,345.6 399.7,344.8 400.6,343.9 C 399.2,340.3 395.6,338.5 393,336 C 389.6,332.4 385.8,329.1 382.8,325.1 C 379.7,322.7 376.3,320.4 374,317 C 372,314.2 368.1,312.6 367.3,309.2 C 368.8,306.7 370.9,303.9 373.8,303.4 C 379.9,306.3 383.3,312.5 388.4,316.7 C 390.1,318.3 391.6,320.1 393.3,321.8 C 395.3,323.7 398,325 399.7,327.3 C 402.2,330.5 404.4,334.2 408.1,336.3 C 409.7,336.9 411.6,335.8 411.9,334.1 C 409.4,327.5 405.8,321.4 403.3,314.8 C 402.4,312.5 402.2,309.9 402.3,307.4 C 404.3,306.4 406.5,305.6 408.8,305.3 C 415.4,312.1 415.1,323 422,329.6 C 426.5,327.6 424.3,321.8 424.4,318 C 424.4,305.9 424.2,293.7 424.5,281.6 M 560,459 C 558.6,460.7 558.7,463.1 558.2,465.1 C 553.7,467.1 552.5,472.6 553.9,476.9 C 557.9,479.9 561.8,484.2 567.2,484.6 C 571.9,485 574.7,480.2 576.4,476.5 C 575.6,473.1 576,469.6 576.2,466.1 C 575,465.9 573.8,465.6 572.6,465.3 C 572.4,463.9 572.3,462.5 572.2,461.1 C 570.6,459.8 569.1,458.5 567.2,457.6 C 564.9,456.1 562.1,457.6 560,459 z"
     id="path2822"
     style="opacity:1;fill:#000000;stroke:#000000;stroke-width:0.09375" />
  <path
     d="M 560,459 C 562.1,457.6 564.9,456.1 567.2,457.6 C 569.1,458.5 570.6,459.8 572.2,461.1 C 572.3,462.5 572.4,463.9 572.6,465.3 C 573.8,465.6 575,465.9 576.2,466.1 C 576,469.6 575.6,473.1 576.4,476.5 C 574.7,480.2 571.9,485 567.2,484.6 C 561.8,484.2 557.9,479.9 553.9,476.9 C 552.5,472.6 553.7,467.1 558.2,465.1 C 558.7,463.1 558.6,460.7 560,459 z"
     id="path2824"
     style="opacity:1;fill:#ffff00;stroke:#ffff00;stroke-width:0.09375" />
  <path
     d="M 279.3,806.2 C 284.7,799.5 294,798.8 302,798.3 C 308.2,797.6 314,800.1 319.5,802.6 C 325.5,805.2 328.4,812.3 327.7,818.6 C 323.3,818.7 318.8,818.7 314.3,818.6 C 312.9,816.3 312,813.7 310.2,811.8 C 306.8,809.7 302.9,808.5 299,807.7 C 295.7,808.3 292.2,809.4 289.6,811.7 C 287.8,814.6 288,819 290.6,821.4 C 292.3,823.3 295,823.3 297.4,823.9 C 301.9,824.6 306.2,826.6 310.7,827.6 C 314.7,828.5 319.1,829 322.5,831.6 C 325,833.7 327.1,836.3 328.9,839 C 331.6,842.8 330.4,847.7 330.6,852.1 C 330.9,856.2 329.5,860.5 326,863 C 322,865.8 317.7,868.6 312.8,869.5 C 307.6,870.5 302.4,872.4 297.1,871.5 C 293.4,870.9 289.7,870.1 286.3,868.6 C 279.1,864.1 272.2,856.7 273.3,847.6 C 277.6,847.4 281.9,846 286.2,846.7 C 287.8,850.3 288.5,854.7 292.1,857 C 298.5,861.4 307.3,861 313.7,856.7 C 315.6,854.2 316.7,851.1 316.8,848 C 315,844.3 311.5,841.2 307.4,840.5 C 303,839.6 298.6,838.3 294.2,837.5 C 286.7,836.2 280,831.5 275.9,825.2 C 274.6,818.8 274.8,811.4 279.3,806.2 z"
     id="path2826"
     style="opacity:1;fill:#000000;stroke:#000000;stroke-width:0.09375" />
  <path
     d="M 579.5,798.6 C 584.1,798.5 589.5,797.1 593.6,800.1 C 592.1,805.4 594,810.7 593.6,816 C 593.4,825 594.1,834 593,843 C 593.5,847.6 593.5,852.3 594,857 C 605.8,857.9 617.8,857.1 629.6,857.4 C 629.7,861.1 629.7,864.9 629.6,868.6 C 613.2,868.6 596.8,868.6 580.4,868.6 C 580.5,849.4 580.3,830.2 580.5,811 C 580.5,806.8 579.3,802.8 579.5,798.6 z"
     id="path2828"
     style="opacity:1;fill:#000000;stroke:#000000;stroke-width:0.09375" />
  <path
     d="M 158.6,799.6 C 162,799.4 165.4,799.1 168.8,799.5 C 170.2,799.5 171.5,800.8 171.5,802.2 C 171.8,805.3 171.6,808.4 171.4,811.4 C 167.1,811.7 162.8,811.7 158.6,811.4 C 158.2,807.5 158.3,803.5 158.6,799.6 z"
     id="path2830"
     style="opacity:1;fill:#000000;stroke:#000000;stroke-width:0.09375" />
  <path
     d="M 86.3,805.9 C 86.2,803.8 86.1,800.2 89.2,800.4 C 101.5,800.2 113.8,800.4 126,800.4 C 130.6,800 135.2,802.3 138,805.9 C 139.7,809.7 141.2,813.7 141.7,817.9 C 141.2,823.6 136.9,827.7 133.9,832.2 C 134.2,836.4 138.8,837.4 141.9,839.1 C 151.2,850.3 141.4,870 127,869.9 C 115.7,871.5 104.3,870.1 93,870.7 C 91.2,870.7 89.3,870.6 87.5,870.5 C 86.8,862.6 87.9,854.6 86.5,846.7 C 86,833.1 86.5,819.5 86.3,805.9 M 101.2,811.9 C 98.7,814.2 99.7,818 99.5,821 C 99.5,823.8 100.4,828.1 104,827.8 C 110.6,827.5 117.2,829.6 123.7,827.9 C 128.1,826.6 128.7,821 128.2,817.1 C 126.6,814.1 123.7,811.2 120.1,811.6 C 113.8,811.7 107.4,811.2 101.2,811.9 M 100.8,840.8 C 100.5,846.1 100.1,851.5 100.9,856.8 C 102.4,858.6 104.7,859.4 106.9,859.2 C 112.8,858.8 118.7,860.4 124.5,858.8 C 127.7,858.3 129.9,855.6 131.1,852.8 C 132.1,849.3 130.4,845.5 128.1,842.9 C 124.8,840.8 120.8,840.4 117,840.5 C 111.6,840.6 106.2,840.4 100.8,840.8 z"
     id="path2832"
     style="opacity:1;fill:#000000;stroke:#000000;stroke-width:0.09375" />
  <path
     d="M 101.2,811.9 C 107.4,811.2 113.8,811.7 120.1,811.6 C 123.7,811.2 126.6,814.1 128.2,817.1 C 128.7,821 128.1,826.6 123.7,827.9 C 117.2,829.6 110.6,827.5 104,827.8 C 100.4,828.1 99.5,823.8 99.5,821 C 99.7,818 98.7,814.2 101.2,811.9 z"
     id="path2834"
     style="opacity:1;fill:#ffff00;stroke:#ffff00;stroke-width:0.09375" />
  <path
     d="M 704.8,816.9 C 710.5,815.5 716.6,814.7 722.4,815.8 C 727.4,817.6 733,819.3 736.1,823.9 C 737.1,825.1 736.6,826.8 736.5,828.3 C 733.9,828.9 731.2,830.1 728.5,829.4 C 725.9,827.7 723.8,825.1 720.7,824.2 C 716,822.4 710.8,824.4 707.1,827.4 C 705.5,829.8 708.3,832.6 710.4,833.7 C 716.6,835.6 723,836.9 729.4,837.8 C 734.8,839.1 738.2,844.1 739.9,849.1 C 741.6,853.4 739.8,858.1 737.9,861.9 C 734.5,865.9 729.3,867.6 724.3,868.2 C 718,869.3 711.7,868 705.5,867.3 C 701.8,865.7 699,862.6 696.3,859.7 C 694.9,858.4 695.4,856.3 695.3,854.6 C 698.3,854.1 701.4,853.1 704.5,853.6 C 708.3,856.4 711.9,860.3 717,860.4 C 721.5,861.3 725.8,858.5 727.9,854.7 C 729.3,852.3 726.3,850.2 724.4,849.5 C 716.4,846.9 706.8,847.7 700.1,842 C 691.8,835.4 694.7,820.1 704.8,816.9 z"
     id="path2836"
     style="opacity:1;fill:#000000;stroke:#000000;stroke-width:0.09375" />
  <path
     d="M 767.4,816.5 C 774.9,813.8 783.6,816.5 789.6,821.4 C 795,825.8 796.6,832.9 798.3,839.2 C 798.8,841 798,842.8 797.6,844.6 C 788,844.9 778.5,844.5 769,844.7 C 766.3,844.6 764.4,846.5 762.6,848.1 C 763.4,851.4 764.6,855.5 768.1,857 C 771.3,858.4 775,860.2 778.5,858.7 C 781.7,857.9 783.3,854.6 785.4,852.4 C 789.6,852.2 793.7,853.1 797.7,854.4 C 795.5,861.7 788.7,867.1 781.1,868 C 773.9,869.6 766.1,868.2 760.1,863.8 C 752.8,858.1 750,848.2 750.5,839.2 C 751.1,833.7 751.4,827.6 755.3,823.4 C 758.3,819.6 763,817.9 767.4,816.5 M 764.5,832.7 C 764.2,834.1 762.9,836.4 764.9,837.1 C 769.8,838.7 775,837.5 780,837.4 C 782.5,837.5 784.3,836 785.4,834 C 784.7,829.4 780.9,824.9 776,824.6 C 771.2,825 765.5,827.5 764.5,832.7 z"
     id="path2838"
     style="opacity:1;fill:#000000;stroke:#000000;stroke-width:0.09375" />
  <path
     d="M 829.7,815.8 C 832.9,815 836.3,815.1 839.6,815.5 C 843,817.9 841.7,823 840,826.1 C 837.2,827.4 834.1,825.3 831.2,825.9 C 827.6,827.4 825.2,830.6 824,834.2 C 822.5,837.6 823.4,841.4 823,845.1 C 822.4,850.7 822.8,856.4 822.7,862 C 822.5,863.5 822.9,865.5 821.3,866.3 C 817.7,867 814,866.7 810.4,866.6 C 810.3,860.7 810.5,854.9 810.5,849 C 810.5,843.9 808.7,838.8 809.8,833.6 C 811,828.4 809.8,823 810.7,817.7 C 812.3,815.6 815.2,816.3 817.4,816.7 C 819.9,817.2 821.4,819.5 823.1,821.2 C 825.3,819.4 827.3,817.4 829.7,815.8 z"
     id="path2840"
     style="opacity:1;fill:#000000;stroke:#000000;stroke-width:0.09375" />
  <path
     d="M 652.6,816.8 C 660.6,815.4 668.9,816.5 676.2,819.8 C 680.2,822 682.8,826.5 682.6,831 C 682.5,839.4 682.8,847.7 682.6,856 C 682.3,860 684.3,863.7 684.9,867.6 C 681.5,867.7 678.1,868 674.8,867.3 C 673.5,866.3 672.7,864.9 671.7,863.6 C 668.6,864.7 666.2,867.3 662.9,867.8 C 657.3,868.9 651.3,869.2 645.7,868.2 C 642.9,866.4 641.3,863.2 639.7,860.4 C 638.9,857 639.3,853.5 639.4,850.1 C 639.3,847 641.7,844.7 643.9,843 C 651.9,837.5 662.8,840 670.5,834 C 670.5,830.8 669.2,826.9 665.9,825.8 C 662.2,825.3 657.7,824.9 654.7,827.7 C 653.3,828.9 652,830.3 650.5,831.4 C 647.2,832 643.7,831.7 640.7,830.2 C 640,829.2 640.4,827.8 640.8,826.7 C 642.7,821.7 647.6,818.4 652.6,816.8 M 657,846.9 C 653.7,847.8 651.4,850.8 650.6,854 C 651.1,857.1 654.3,859.3 657.1,860.3 C 661.8,861.2 667.5,859.1 669.6,854.5 C 671,851.4 670.4,848 670.1,844.8 C 665.6,844.3 661.2,845.6 657,846.9 z"
     id="path2842"
     style="opacity:1;fill:#000000;stroke:#000000;stroke-width:0.09375" />
  <path
     d="M 349.2,823.2 C 355.3,817.1 364.6,816.8 372.6,817.7 C 380.1,819 388.2,825.1 387.7,833.5 C 384,834.5 380.3,834.8 376.5,834.6 C 374.8,832.5 373.3,830.3 371.4,828.6 C 368.3,827.2 364.7,827.2 361.4,827.6 C 358,829.5 355.4,832.8 354.4,836.5 C 352.7,841.8 354,847.5 355,852.8 C 357.3,859.5 365.9,862.8 372.1,859.3 C 375.2,857.9 375.5,854.2 376.6,851.4 C 380.6,851.1 384.6,851.8 388.5,852.8 C 389.4,857.2 386.8,861.6 383.5,864.4 C 378.7,868 373.2,871.2 367.2,871.5 C 363.4,871 359.5,870.8 355.8,870 C 350.8,867.7 347,863.5 344,859 C 340.6,854 341.4,847.7 341.3,842 C 341.1,835 343.3,827.4 349.2,823.2 z"
     id="path2844"
     style="opacity:1;fill:#000000;stroke:#000000;stroke-width:0.09375" />
  <path
     d="M 405.5,820.5 C 410.8,817.5 417.3,816.9 423.3,817.8 C 426.5,818.3 430,818.4 432.9,820.2 C 436.3,821.8 437.2,825.8 439.2,828.7 C 442.7,833.6 439,839.6 439.7,845 C 440.6,850.5 440.2,856.1 441.3,861.6 C 441.7,863.9 441.7,866.2 441.5,868.5 C 438.8,868.7 436.1,869.1 433.4,868.5 C 431.5,867.7 430.4,865.9 428.9,864.6 C 423.7,870.3 415.3,871.8 408.1,869.8 C 403.8,869.4 400.2,866.6 398.3,862.8 C 394.5,857.3 396.9,849.7 401.3,845.3 C 405.2,842.6 409.9,841 414.5,839.8 C 419.6,839.3 425.2,838.8 429.3,835.2 C 428.4,832.8 427.7,830 425.4,828.6 C 422.1,826.6 418,825.9 414.5,827.3 C 411.5,828.3 409.4,831 406.6,832.5 C 403.8,832.6 401,831.9 398.2,831.5 C 399.6,827.3 401.4,822.7 405.5,820.5 M 414.2,848.1 C 410.7,848.8 408.6,852.5 408.7,855.9 C 410.4,859.1 413.6,861.3 417.1,862 C 420.4,861.8 424.1,861 426.4,858.4 C 428.8,854.7 429.6,850.1 429.2,845.8 C 424.1,845.1 419.1,846.9 414.2,848.1 z"
     id="path2846"
     style="opacity:1;fill:#000000;stroke:#000000;stroke-width:0.09375" />
  <path
     d="M 469.8,823.2 C 472.5,821.1 474.1,816.9 478,817.3 C 484.7,817.4 491.3,817.5 498,817.4 C 500.4,817.3 503.2,818.1 504.2,820.6 C 507,827 509.1,833.7 511.2,840.4 C 512.5,844.1 511.7,849.5 516.1,851.4 C 517.7,851.9 518.7,850.1 518.9,848.8 C 521,839.6 524.2,830.8 527.1,821.9 C 527.5,820.5 528.5,819.5 529.3,818.4 C 532.8,818.3 536.4,818.2 539.9,818.4 C 539.7,822.9 536.9,826.6 535.7,830.8 C 534.1,837.1 530.9,842.9 529.2,849.3 C 526.6,854.8 526.7,861.2 523.5,866.6 C 521.1,872.8 517.7,878.5 515.9,884.9 C 510.1,890.3 501.8,890 494.4,889.7 C 494.2,886.6 494.2,883.5 494.4,880.4 C 497.9,880.3 502.2,880.9 504.9,877.8 C 506.9,875.5 509.3,872.4 508.1,869.2 C 506,863 504.3,856.6 501.5,850.6 C 500.4,848.2 499.8,845.6 499.2,843 C 498.6,839.7 496.5,837 495.3,833.9 C 493.7,830.3 492.9,826.2 490,823.3 C 487.8,824.8 486.3,827.1 485.1,829.5 C 481.4,829.7 477.8,828 474.1,828.8 C 470.1,830.7 468.3,835.2 468.1,839.4 C 467.8,844.7 466.2,850.1 467.3,855.4 C 468.2,859.9 466.6,864.3 467.4,868.8 C 463.7,868.7 460,868.7 456.3,868.6 C 456.4,854.8 456.4,840.9 456.3,827 C 456.3,824.4 456.2,821.7 457.2,819.3 C 460.2,819.5 463.8,818.4 466.2,820.8 C 467.4,821.6 468.3,823.1 469.8,823.2 z"
     id="path2848"
     style="opacity:1;fill:#000000;stroke:#000000;stroke-width:0.09375" />
  <path
     d="M 186.8,830.6 C 189.2,824.9 194.2,820.2 200.2,818.5 C 205.6,818.1 211.5,817.8 216.2,821 C 217.7,821.9 219.2,823 220.7,823.9 C 221.7,822.7 222.6,821.6 223.5,820.4 C 226.1,820.4 229.3,819.5 231.3,821.7 C 232.9,823 232.6,825.1 232.7,826.9 C 232.6,835.3 232.7,843.7 232.6,852 C 232.4,855.7 233.7,859.3 233.7,863 C 233.8,868 232.8,872.9 232.5,877.9 C 232.3,880.6 232,883.8 229.6,885.6 C 226.6,888.1 223.3,890.7 219.3,891.2 C 211.4,892.2 203.3,891.8 195.6,890.2 C 190.7,889.1 187.9,884.5 185.9,880.3 C 185,878.5 186.5,876.8 187.3,875.3 C 191.9,875.7 197,876.1 200.6,879.4 C 202.3,880.6 203.7,882.4 205.9,882.4 C 210,882.5 214.8,883.1 218.1,880.1 C 223.3,876.9 221.2,869.9 221,864.9 C 215.6,863.2 213.8,870.7 208.8,870.5 C 204.4,870.6 199.1,871.7 195.5,868.5 C 191.9,865.4 188.8,861.8 186.3,857.8 C 183,849.1 183.9,839.3 186.8,830.6 M 202.4,829.3 C 198,831.8 197.2,837.3 196.6,841.9 C 195.6,849 199,857.6 206.3,859.9 C 210.6,862.2 215.1,858.9 218.3,856.3 C 223.9,848.1 222,835.7 214.7,829.2 C 210.8,828.2 206.2,828.1 202.4,829.3 z"
     id="path2850"
     style="opacity:1;fill:#000000;stroke:#000000;stroke-width:0.09375" />
  <path
     d="M 159.3,820.3 C 163.1,820.4 167.5,819.5 170.6,822.4 C 170.8,838.2 170.6,854 170.7,869.8 C 167.1,871.3 163.2,870.7 159.5,870.5 C 159,853.8 159.6,837 159.3,820.3 z"
     id="path2852"
     style="opacity:1;fill:#000000;stroke:#000000;stroke-width:0.09375" />
  <path
     d="M 764.5,832.7 C 765.5,827.5 771.2,825 776,824.6 C 780.9,824.9 784.7,829.4 785.4,834 C 784.3,836 782.5,837.5 780,837.4 C 775,837.5 769.8,838.7 764.9,837.1 C 762.9,836.4 764.2,834.1 764.5,832.7 z"
     id="path2854"
     style="opacity:1;fill:#ffff00;stroke:#ffff00;stroke-width:0.09375" />
  <path
     d="M 202.4,829.3 C 206.2,828.1 210.8,828.2 214.7,829.2 C 222,835.7 223.9,848.1 218.3,856.3 C 215.1,858.9 210.6,862.2 206.3,859.9 C 199,857.6 195.6,849 196.6,841.9 C 197.2,837.3 198,831.8 202.4,829.3 z"
     id="path2856"
     style="opacity:1;fill:#ffff00;stroke:#ffff00;stroke-width:0.09375" />
  <path
     d="M 100.8,840.8 C 106.2,840.4 111.6,840.6 117,840.5 C 120.8,840.4 124.8,840.8 128.1,842.9 C 130.4,845.5 132.1,849.3 131.1,852.8 C 129.9,855.6 127.7,858.3 124.5,858.8 C 118.7,860.4 112.8,858.8 106.9,859.2 C 104.7,859.4 102.4,858.6 100.9,856.8 C 100.1,851.5 100.5,846.1 100.8,840.8 z"
     id="path2858"
     style="opacity:1;fill:#ffff00;stroke:#ffff00;stroke-width:0.09375" />
  <path
     d="M 657,846.9 C 661.2,845.6 665.6,844.3 670.1,844.8 C 670.4,848 671,851.4 669.6,854.5 C 667.5,859.1 661.8,861.2 657.1,860.3 C 654.3,859.3 651.1,857.1 650.6,854 C 651.4,850.8 653.7,847.8 657,846.9 z"
     id="path2860"
     style="opacity:1;fill:#ffff00;stroke:#ffff00;stroke-width:0.09375" />
  <path
     d="M 414.2,848.1 C 419.1,846.9 424.1,845.1 429.2,845.8 C 429.6,850.1 428.8,854.7 426.4,858.4 C 424.1,861 420.4,861.8 417.1,862 C 413.6,861.3 410.4,859.1 408.7,855.9 C 408.6,852.5 410.7,848.8 414.2,848.1 z"
     id="path2862"
     style="opacity:1;fill:#ffff00;stroke:#ffff00;stroke-width:0.09375" />
  <path
     d="M 640.6,916.5 C 642.8,916.3 645.4,916 647.1,917.8 C 649,922.1 645.4,928.3 649.9,931.5 C 652,930.4 654,929.1 656.3,928.4 C 662.1,927.6 667.5,931.6 670.7,936.2 C 673.5,941.6 673.1,948.1 671.7,953.8 C 670.6,959.1 666,964.6 660,963.8 C 656.1,964.2 652.8,960.1 648.9,961.8 C 646.2,962.8 643.3,962.9 640.5,962.5 C 640.3,947.2 640.2,931.9 640.6,916.5 M 650.5,937.5 C 648,939.7 647.4,943.2 647.2,946.4 C 646.2,952.7 652.5,959.1 658.9,957.2 C 667.6,952.8 666.8,938.8 659,933.7 C 656,934.3 652.7,935 650.5,937.5 z"
     id="path2864"
     style="opacity:1;fill:#000000;stroke:#000000;stroke-width:0.09375" />
  <path
     d="M 110.4,918.3 C 112.9,917.1 115.6,917.7 118.2,918.1 C 124.1,918.9 130,918.1 135.9,918.4 C 138.7,918.5 141,920.2 143.2,921.8 C 147.1,924.6 147.4,929.9 148.6,934.3 C 150.4,941.1 149.6,948.3 148,955.2 C 146.6,958.5 143.1,960.3 140.3,962.3 C 138,963.6 135.9,965.7 133,965.6 C 125.8,965.6 118.6,965.7 111.4,965.6 C 110.6,963.1 110.3,960.6 110.4,958 C 110.5,944.8 110.3,931.5 110.4,918.3 M 121.1,925.9 C 118.2,932.2 120.2,939.3 119.6,946 C 120,949.6 118.4,954.1 121.2,957.1 C 126.9,957.5 133.8,958.9 138.3,954.4 C 141.6,951.2 141.3,946.2 141.4,942 C 141.3,937.9 142.2,933.2 139,929.9 C 134.7,924.8 127.2,925.2 121.1,925.9 z"
     id="path2866"
     style="opacity:1;fill:#000000;stroke:#000000;stroke-width:0.09375" />
  <path
     d="M 442.4,917.3 C 444.5,917.3 446.6,917.3 448.6,917.4 C 450.5,924.2 449.1,931.4 450.5,938.3 C 451.3,939 452.2,939.7 453,940.4 C 457.1,937.7 458.7,932.6 462.8,929.8 C 465.4,929.1 468.2,929.4 470.9,929.4 C 470.6,933.5 466.7,935.6 464.7,938.8 C 463.5,940.8 461.5,943.3 463.2,945.6 C 466,950.7 469.3,955.6 472.1,960.8 C 472.7,961.9 472.5,963.2 472.6,964.4 C 470.2,964.5 467.8,964.9 465.5,964.5 C 461.1,960.5 459.9,954.3 456,950 C 454.8,950.4 453.4,950.6 452.8,951.9 C 450.4,955.6 450.7,960.3 450.6,964.6 C 447.9,964.7 445.1,964.7 442.4,964.6 C 442.5,948.8 442.4,933.1 442.4,917.3 z"
     id="path2868"
     style="opacity:1;fill:#000000;stroke:#000000;stroke-width:0.09375" />
  <path
     d="M 499.6,917.5 C 501.5,917.3 503.4,917.2 505.3,917.6 C 508.2,924.2 505.4,931.3 506.4,938.2 C 506.8,946.7 506.6,955.2 506.6,963.7 C 504.5,963.7 502.4,963.7 500.2,963.7 C 498.8,960.3 499.4,956.6 499.3,953 C 499.6,941.2 499,929.3 499.6,917.5 z"
     id="path2870"
     style="opacity:1;fill:#000000;stroke:#000000;stroke-width:0.09375" />
  <path
     d="M 342.4,918.2 C 343.8,918.3 345.2,918.3 346.6,918.4 C 348,920 349.7,921.7 349.6,924.1 C 349.9,931.7 349.3,939.3 349.6,946.9 C 350,952.5 348.1,958.1 349.7,963.7 C 347.3,963.8 344.8,963.8 342.3,963.7 C 342.4,948.6 342.3,933.4 342.4,918.2 z"
     id="path2872"
     style="opacity:1;fill:#000000;stroke:#000000;stroke-width:0.09375" />
  <path
     d="M 300.9,925.7 C 301.7,921.2 306.7,919.9 310.5,919.1 C 310.5,922.7 310.4,926.4 310.9,930 C 312.4,930.2 314,930.4 315.6,930.6 C 316.3,932.5 316.6,934.4 316.7,936.3 C 314.1,936.9 310.6,937 309.8,940.1 C 309.3,945.4 309.6,950.7 309.7,955.9 C 312.3,958.1 317.6,960.7 314.8,964.6 C 310.4,964.9 304.5,965.6 302.6,960.6 C 301.7,953.5 303.2,946.2 300.9,939.3 C 300.1,938.3 299.1,937.5 298.3,936.5 C 297.5,932.7 299.9,929.2 300.9,925.7 z"
     id="path2874"
     style="opacity:1;fill:#000000;stroke:#000000;stroke-width:0.09375" />
  <path
     d="M 559.7,921.5 C 561.7,921.4 563.7,921.3 565.7,921.3 C 566.3,923.3 566.7,925.5 567.4,927.5 C 568.7,929.7 573.2,929.6 572.6,932.9 C 572.7,935 570.2,935.6 568.9,936.9 C 566,938.7 566.9,942.5 567.2,945.3 C 567.6,949 565.3,953.1 567.6,956.4 C 569.6,957.6 572.2,957.3 574.5,957.7 C 574.6,959.6 574.6,961.4 574.4,963.3 C 570.3,964.3 564.8,966.3 561.8,962.2 C 558.5,959.8 559.5,955.5 559.4,952 C 559.3,947.8 559.9,943.5 558.8,939.5 C 558.1,936.7 553.6,935.8 554.6,932.6 C 554.8,930.1 557.2,928.9 559,927.7 C 559.3,925.6 559.5,923.6 559.7,921.5 z"
     id="path2876"
     style="opacity:1;fill:#000000;stroke:#000000;stroke-width:0.09375" />
  <path
     d="M 121.1,925.9 C 127.2,925.2 134.7,924.8 139,929.9 C 142.2,933.2 141.3,937.9 141.4,942 C 141.3,946.2 141.6,951.2 138.3,954.4 C 133.8,958.9 126.9,957.5 121.2,957.1 C 118.4,954.1 120,949.6 119.6,946 C 120.2,939.3 118.2,932.2 121.1,925.9 z"
     id="path2878"
     style="opacity:1;fill:#ffff00;stroke:#ffff00;stroke-width:0.09375" />
  <path
     d="M 684,932 C 688.8,926.5 697.3,926.6 703.4,929.7 C 706.9,932 708.5,936 710.2,939.6 C 711.4,942 711.7,944.7 711.5,947.4 C 704,948 696.4,947.1 688.8,947.9 C 688.7,950 687.9,952.6 689.5,954.4 C 691.3,956.3 694.1,957.9 696.7,957 C 699.4,956.4 701.2,954.2 703.1,952.4 C 705.1,952.7 707.1,953.3 708.9,954.3 C 708.6,960.2 702.3,963.7 697,963.6 C 692.8,963.5 688.1,963.2 685.1,959.9 C 682.3,956.9 679.5,953.2 679.4,948.9 C 679,943 679.1,936.2 684,932 M 688.6,940 C 688.1,942.5 691,943.6 693,943.5 C 696.3,943.3 700.3,943.1 702.3,940.1 C 701.2,937.9 700.3,935 697.7,934.1 C 693.6,932.2 689.4,936.1 688.6,940 z"
     id="path2880"
     style="opacity:1;fill:#000000;stroke:#000000;stroke-width:0.09375" />
  <path
     d="M 721.9,930 C 726.8,927.7 732.6,926.7 737.8,928.4 C 740.9,929.3 744.1,931.3 745.2,934.5 C 746.6,941.4 744.7,948.5 746.2,955.4 C 746.8,957.8 746.5,960.4 745.6,962.7 C 742.8,963.3 740.7,961.6 738.8,959.8 C 734,961.8 728.8,963.7 723.5,962.4 C 720.5,960.6 717,957.9 717.3,954 C 717.2,951.9 717.2,949.8 717.7,947.7 C 722.2,943.1 728.9,942.7 734.7,940.9 C 737,940.3 739.8,937.7 737.8,935.4 C 735.4,933.8 732.2,932.9 729.6,934.4 C 726.4,936.1 722.9,937.2 719.2,936.7 C 719.1,934.2 719.3,931.2 721.9,930 M 726.6,949.6 C 725,951.6 724.7,955.6 727.6,956.6 C 730.6,958.3 734.3,956.7 736.9,954.9 C 739.2,952.9 738.2,949.5 738.2,946.8 C 734.2,946.3 729.4,946.2 726.6,949.6 z"
     id="path2882"
     style="opacity:1;fill:#000000;stroke:#000000;stroke-width:0.09375" />
  <path
     d="M 766.1,930.3 C 768.1,929.3 770.1,928.1 772.3,927.4 C 777.2,926.6 781.5,929.6 785.9,931.3 C 788.5,929.4 791.2,926.6 794.7,927.4 C 800.1,927.3 806.1,931.1 805.7,937 C 805.5,945.1 806.1,953.2 805.4,961.3 C 803.2,962.1 800.9,962.9 798.6,962.5 C 797.9,954.4 798.8,946.2 798.3,938 C 798,933.6 791.6,932 788.8,934.7 C 783.7,942.5 786.3,952 785.5,960.6 C 783.8,963.3 779.9,963 777.4,961.7 C 777.3,956.2 777.3,950.6 777.4,945 C 777.4,941.4 777.5,937.5 775.7,934.2 C 771.2,931.8 765.7,935.4 764.8,940.1 C 763.4,947.1 765.4,954.3 764.4,961.4 C 761.7,961.8 759,961.8 756.3,961.7 C 756.5,950.6 756.1,939.6 756.6,928.5 C 759.9,927.8 763.1,928.8 766.1,930.3 z"
     id="path2884"
     style="opacity:1;fill:#000000;stroke:#000000;stroke-width:0.09375" />
  <path
     d="M 527.8,933.2 C 531.9,927.6 541.2,926.6 545.8,932.2 C 549.9,937.8 547.6,944.9 547,951.2 C 546.3,954.7 547.7,958.1 547.6,961.6 C 546.6,964.6 542.8,963.5 540.4,963.8 C 539.6,954.4 542.6,944.1 537.2,935.7 C 535.4,933.4 532.3,935.1 530.2,936.1 C 526.8,937.4 525.8,941.1 525.1,944.3 C 524.2,947.6 525.4,951 524.9,954.3 C 524.6,957.4 524.5,960.6 524.6,963.8 C 522.5,963.7 520.4,963.3 518.4,962.7 C 518.2,954.5 518.4,946.2 518.3,938 C 518.3,935.3 518,932.5 519.1,930 C 522.1,930.7 524.8,932.8 527.8,933.2 z"
     id="path2886"
     style="opacity:1;fill:#000000;stroke:#000000;stroke-width:0.09375" />
  <path
     d="M 372.4,929.6 C 377,928.8 382,929.6 386,932.1 C 392.5,937.5 395.8,947.3 392.2,955.3 C 390.8,958.6 387.7,960.8 384.7,962.6 C 380.2,965.5 374.5,964.9 369.4,964.4 C 364.4,962.7 359.9,958.4 359.2,952.9 C 357.1,946.2 359.4,939 363.7,933.7 C 366.1,931.4 369.3,930.4 372.4,929.6 M 374.3,937 C 367.9,938.4 366.1,945.9 367.3,951.5 C 368.5,956 373.9,960 378.4,957.6 C 384,956 386.3,949 384.4,943.9 C 383.4,939.4 379.2,934.8 374.3,937 z"
     id="path2888"
     style="opacity:1;fill:#000000;stroke:#000000;stroke-width:0.09375" />
  <path
     d="M 413.4,929.6 C 422.7,927.4 432.6,934.3 434.3,943.6 C 435.5,950.6 433,959 426.4,962.4 C 418.8,966.5 408.1,965.5 402.5,958.6 C 398.4,953.8 398.8,946.9 400.4,941.2 C 401.8,935.2 407.1,930 413.4,929.6 M 412,938 C 405.4,942.5 406.2,954.3 413.7,957.4 C 416.4,959.3 419.8,957.9 422.3,956.4 C 424.7,954.3 425.7,951 426.3,947.9 C 426.1,943.7 423.9,939.7 421,936.6 C 418,936.5 414.6,935.9 412,938 z"
     id="path2890"
     style="opacity:1;fill:#000000;stroke:#000000;stroke-width:0.09375" />
  <path
     d="M 590.4,929.6 C 595.4,928.9 600.9,928.9 605.2,931.9 C 612.4,935.8 613.7,945.1 612.3,952.5 C 611,955.8 609.2,959 606.6,961.6 C 600.1,965.6 591.4,965.2 585,961 C 580.3,956.7 578.6,950.2 579.3,944 C 578.5,937.3 583.6,930.3 590.4,929.6 M 592.3,936.2 C 586.9,939.3 586.8,946.4 587.9,951.8 C 590.5,957.4 598.8,958.1 602.9,953.9 C 606,949.3 606.2,942.8 602.7,938.4 C 600.2,935.4 595.7,934.7 592.3,936.2 z"
     id="path2892"
     style="opacity:1;fill:#000000;stroke:#000000;stroke-width:0.09375" />
  <path
     d="M 171.4,930.6 C 176.6,929.8 182.7,930.5 186.6,934.4 C 192,941.8 193.2,952.5 188.5,960.5 C 183.8,964.1 177.6,966.6 171.5,965.4 C 166,964.5 161,960.7 158.1,956 C 156.8,951.6 157.2,946.9 157.6,942.4 C 159.7,936.5 164.9,931.2 171.4,930.6 M 169.5,938.4 C 167.6,941.3 166.2,944.6 165.6,948 C 165.5,951 166.9,953.9 168.6,956.3 C 171.1,959.3 175.5,959.4 178.9,958 C 182,955.9 183.8,951.8 183.5,948 C 183.3,944.1 182,939.3 177.7,938.1 C 175.2,937.4 171.7,936.8 169.5,938.4 z"
     id="path2894"
     style="opacity:1;fill:#000000;stroke:#000000;stroke-width:0.09375" />
  <path
     d="M 229,932.6 C 233.6,930.7 238.5,929.5 243.5,930.6 C 247.1,932.8 249.6,936.8 249.5,941.1 C 249.6,949.2 249.7,957.3 249.4,965.4 C 246.8,965.6 244.1,965.7 241.4,965.7 C 241.4,961.3 241.5,956.9 240.7,952.5 C 240,947.6 241.4,942 238.4,937.6 C 236,935.5 232.7,937 230.3,938.3 C 227.3,940 226.5,943.7 226.6,947 C 226.5,952.8 226.9,958.7 226.5,964.5 C 224.4,964.6 222.3,964.7 220.3,964.8 C 219,962 219.4,958.9 219.3,956 C 219.4,947.8 219.3,939.5 219.4,931.3 C 222.7,930.9 225.9,931.7 229,932.6 z"
     id="path2896"
     style="opacity:1;fill:#000000;stroke:#000000;stroke-width:0.09375" />
  <path
     d="M 269.6,930.7 C 275.2,930.3 282.2,928.8 286.5,933.5 C 291.8,937.5 292.3,944.7 292.6,950.8 C 290.7,955.6 288.5,961 284.1,963.9 C 277.8,966.6 270.2,966.1 264.3,962.7 C 260.9,960.3 258.1,956.4 258.3,952 C 258.4,948.9 257.5,945.7 257.8,942.6 C 259.7,937.2 264.1,932.5 269.6,930.7 M 271.3,937.2 C 267.5,938.5 264.8,942.8 265.9,946.8 C 266.8,951 267.6,956.4 272.1,958.2 C 275.2,958.7 279.2,959.1 281.5,956.4 C 285.8,952.3 284.8,945.5 282.3,940.7 C 280.1,936.9 275.3,935.5 271.3,937.2 z"
     id="path2898"
     style="opacity:1;fill:#000000;stroke:#000000;stroke-width:0.09375" />
  <path
     d="M 650.5,937.5 C 652.7,935 656,934.3 659,933.7 C 666.8,938.8 667.6,952.8 658.9,957.2 C 652.5,959.1 646.2,952.7 647.2,946.4 C 647.4,943.2 648,939.7 650.5,937.5 z"
     id="path2900"
     style="opacity:1;fill:#ffff00;stroke:#ffff00;stroke-width:0.09375" />
  <path
     d="M 688.6,940 C 689.4,936.1 693.6,932.2 697.7,934.1 C 700.3,935 701.2,937.9 702.3,940.1 C 700.3,943.1 696.3,943.3 693,943.5 C 691,943.6 688.1,942.5 688.6,940 z"
     id="path2902"
     style="opacity:1;fill:#ffff00;stroke:#ffff00;stroke-width:0.09375" />
  <path
     d="M 592.3,936.2 C 595.7,934.7 600.2,935.4 602.7,938.4 C 606.2,942.8 606,949.3 602.9,953.9 C 598.8,958.1 590.5,957.4 587.9,951.8 C 586.8,946.4 586.9,939.3 592.3,936.2 z"
     id="path2904"
     style="opacity:1;fill:#ffff00;stroke:#ffff00;stroke-width:0.09375" />
  <path
     d="M 271.3,937.2 C 275.3,935.5 280.1,936.9 282.3,940.7 C 284.8,945.5 285.8,952.3 281.5,956.4 C 279.2,959.1 275.2,958.7 272.1,958.2 C 267.6,956.4 266.8,951 265.9,946.8 C 264.8,942.8 267.5,938.5 271.3,937.2 z"
     id="path2906"
     style="opacity:1;fill:#ffff00;stroke:#ffff00;stroke-width:0.09375" />
  <path
     d="M 374.3,937 C 379.2,934.8 383.4,939.4 384.4,943.9 C 386.3,949 384,956 378.4,957.6 C 373.9,960 368.5,956 367.3,951.5 C 366.1,945.9 367.9,938.4 374.3,937 z"
     id="path2908"
     style="opacity:1;fill:#ffff00;stroke:#ffff00;stroke-width:0.09375" />
  <path
     d="M 412,938 C 414.6,935.9 418,936.5 421,936.6 C 423.9,939.7 426.1,943.7 426.3,947.9 C 425.7,951 424.7,954.3 422.3,956.4 C 419.8,957.9 416.4,959.3 413.7,957.4 C 406.2,954.3 405.4,942.5 412,938 z"
     id="path2910"
     style="opacity:1;fill:#ffff00;stroke:#ffff00;stroke-width:0.09375" />
  <path
     d="M 169.5,938.4 C 171.7,936.8 175.2,937.4 177.7,938.1 C 182,939.3 183.3,944.1 183.5,948 C 183.8,951.8 182,955.9 178.9,958 C 175.5,959.4 171.1,959.3 168.6,956.3 C 166.9,953.9 165.5,951 165.6,948 C 166.2,944.6 167.6,941.3 169.5,938.4 z"
     id="path2912"
     style="opacity:1;fill:#ffff00;stroke:#ffff00;stroke-width:0.09375" />
  <path
     d="M 726.6,949.6 C 729.4,946.2 734.2,946.3 738.2,946.8 C 738.2,949.5 739.2,952.9 736.9,954.9 C 734.3,956.7 730.6,958.3 727.6,956.6 C 724.7,955.6 725,951.6 726.6,949.6 z"
     id="path2914"
     style="opacity:1;fill:#ffff00;stroke:#ffff00;stroke-width:0.09375" />
  <path
     d="M 254.5,994.2 C 254.8,990.3 259.8,991.5 262.5,991.4 C 263.7,996.3 263.4,1001.3 263.8,1006.3 C 268.5,1007.6 272.5,1002.7 277.1,1005 C 282.8,1005.9 284.2,1012.2 284.6,1017 C 285.1,1023.6 286.7,1030.4 284.9,1036.9 C 284.3,1039.8 280.6,1038.4 278.5,1038.6 C 277.5,1030.1 280.2,1020.6 275,1013.1 C 272.1,1009.9 266.9,1011.7 265.1,1015.2 C 261.7,1022.8 263.1,1031.4 262.4,1039.5 C 259.7,1039.9 257,1039.6 254.4,1038.6 C 254.5,1023.8 254.3,1009 254.5,994.2 z"
     id="path2916"
     style="opacity:1;fill:#000000;stroke:#000000;stroke-width:0.09375" />
  <path
     d="M 475.3,991.3 C 477.8,991.3 480.2,991.3 482.7,991.4 C 483.7,993.6 483.7,996.1 483.7,998.6 C 480.6,998.7 477.5,998.7 474.5,998.4 C 474.3,996 474.2,993.6 475.3,991.3 z"
     id="path2918"
     style="opacity:1;fill:#000000;stroke:#000000;stroke-width:0.09375" />
  <path
     d="M 535.3,991.3 C 537.3,991.3 539.4,991.3 541.5,991.4 C 542,993.8 542.5,996.2 542.7,998.7 C 540.3,998.7 537.9,998.7 535.5,998.5 C 535.3,996.1 535.2,993.7 535.3,991.3 z"
     id="path2920"
     style="opacity:1;fill:#000000;stroke:#000000;stroke-width:0.09375" />
  <path
     d="M 213.4,992.3 C 216.1,992.2 218.8,992.3 221.5,992.6 C 221.7,994.8 221.7,997.1 221.5,999.4 C 218.8,999.7 216.1,999.8 213.4,999.7 C 213.3,997.2 213.3,994.8 213.4,992.3 z"
     id="path2922"
     style="opacity:1;fill:#000000;stroke:#000000;stroke-width:0.09375" />
  <path
     d="M 233.7,997.7 C 235.6,995.3 238.8,995.4 241.6,995.2 C 241.6,998.1 241.4,1001 242,1003.8 C 243.7,1005 245.7,1005.7 247.7,1006.6 C 247.7,1008.1 247.6,1009.6 247.4,1011.1 C 245.2,1011.9 241.6,1011.9 241.7,1015 C 241.1,1019.9 240.9,1025 242,1029.8 C 242.3,1033.7 248.6,1032.2 248.6,1036.1 C 249.1,1038.3 247,1039.9 244.9,1039.7 C 241.2,1039.8 235.7,1040.1 234.4,1035.6 C 232.1,1028.7 234.1,1021.2 233.2,1014.1 C 231.6,1012.3 228.8,1010.8 229.2,1008 C 229.1,1006.4 230.4,1005.3 231.1,1004 C 232.5,1002.1 232.5,999.6 233.7,997.7 z"
     id="path2924"
     style="opacity:1;fill:#000000;stroke:#000000;stroke-width:0.09375" />
  <path
     d="M 729,1009 C 731.5,1005.7 734.8,1002.4 739.1,1002.4 C 744.8,1001.6 751,1003.7 754.7,1008.3 C 757.5,1012 757.9,1016.9 757.5,1021.4 C 751.7,1022 745.9,1021.3 740,1021.8 C 738.2,1021.8 736.8,1022.9 735.4,1024 C 735.7,1027.6 738.5,1030.7 742,1031.4 C 744.8,1031.6 747,1029.7 749.1,1028.1 C 751.1,1026.4 753.7,1027.9 755.8,1028.4 C 755.7,1030.6 755.6,1033.1 753.5,1034.5 C 748.6,1038.1 741.8,1038.3 736,1036.8 C 732.6,1036 730.7,1032.8 729,1030.1 C 726.8,1026.4 727.4,1022 727.3,1018 C 727.4,1014.9 727,1011.5 729,1009 M 734.7,1015.1 C 735.4,1016.2 736.5,1017.3 738,1017.3 C 741.6,1017.5 745.8,1017.9 748.9,1015.7 C 750.5,1013 748.5,1009.7 745.7,1009.1 C 741,1007.2 736.2,1010.7 734.7,1015.1 z"
     id="path2926"
     style="opacity:1;fill:#000000;stroke:#000000;stroke-width:0.09375" />
  <path
     d="M 563.9,1006.1 C 568.6,1002.4 574.7,1003 580,1004.8 C 581,1007.6 582.4,1010.3 583.1,1013.2 C 583,1015.5 582.3,1017.7 582.8,1020 C 584,1025.7 583.6,1031.6 583.4,1037.4 C 581.4,1037.7 579.3,1037.8 577.3,1037.7 C 575,1029.8 577.3,1021.3 576.1,1013.2 C 575.3,1010 571.4,1010.4 569,1010.5 C 565,1010.3 562.6,1014.4 562.6,1018 C 562.3,1024.8 562.9,1031.6 562.4,1038.4 C 559.5,1038.7 556.5,1038.7 553.6,1038.4 C 553.2,1031.6 553.5,1024.8 553.4,1018 C 553.5,1013.4 553,1008.7 554.4,1004.3 C 557.7,1004.1 560.8,1005.1 563.9,1006.1 z"
     id="path2928"
     style="opacity:1;fill:#000000;stroke:#000000;stroke-width:0.09375" />
  <path
     d="M 601.6,1003.7 C 605.3,1002.6 609.2,1003.8 612.5,1005.6 C 616.3,1008.2 620.4,1004.4 624.5,1005.4 C 625,1014.9 624.3,1024.5 624.7,1034 C 624.8,1039.2 624.8,1045.1 621.6,1049.5 C 613.8,1052.2 604.5,1053 597.1,1048.9 C 594.7,1047.6 594.6,1044.6 594.1,1042.2 C 598.4,1039.6 603.1,1043 606.8,1045.3 C 610.4,1048.1 614.6,1044.4 617.3,1042 C 617.5,1039.7 617.4,1037.3 617,1035 C 612,1036.3 607,1039 601.7,1037.2 C 596.8,1034.8 593,1029.6 593.3,1024 C 593.4,1019.9 593,1015.7 593.8,1011.7 C 595.6,1008.4 598.4,1005.6 601.6,1003.7 M 606.4,1010.2 C 602.2,1012.4 600.6,1017.5 600.7,1021.9 C 601.7,1026.6 605.2,1032.8 610.9,1031.2 C 616.9,1028.5 618.9,1020.5 616.4,1014.7 C 615.2,1010.8 610.1,1008.4 606.4,1010.2 z"
     id="path2930"
     style="opacity:1;fill:#000000;stroke:#000000;stroke-width:0.09375" />
  <path
     d="M 656,1008 C 659.6,1002.6 666.4,1003.1 672,1003.4 C 676.3,1003.3 679.4,1007 681.7,1010.2 C 684.3,1013.5 683.6,1017.9 683.6,1021.7 C 677,1023.9 669.9,1021.7 663.1,1022.8 C 661.3,1023 660.5,1025 661.3,1026.5 C 661.9,1029.3 664.3,1031.4 667.1,1032.2 C 671.1,1032.1 673.8,1027.7 678,1028.2 C 679.3,1028.1 680.7,1028.6 681.9,1029.1 C 681.3,1031 681,1033.1 679.6,1034.6 C 673.6,1037.9 666.2,1040.3 659.4,1037.5 C 656.5,1035.6 653.4,1032.8 653.4,1029 C 652.6,1022 650.4,1013.7 656,1008 M 664,1010 C 662.4,1011.1 660,1012.5 660.6,1014.9 C 661.3,1017.3 664.3,1017.8 666.4,1017.6 C 669.6,1017.4 673.5,1018 675.6,1015 C 674.7,1010 668.2,1006.9 664,1010 z"
     id="path2932"
     style="opacity:1;fill:#000000;stroke:#000000;stroke-width:0.09375" />
  <path
     d="M 713.9,1003.9 C 715.9,1002.7 718.5,1003.5 720.7,1003.3 C 721,1004.3 721.9,1005.5 721.3,1006.6 C 716.2,1017.6 713.3,1029.4 708.5,1040.6 C 707.1,1043.6 706.2,1047.3 703.2,1049.1 C 699.6,1051.3 695.3,1050.6 691.3,1050.6 C 690.9,1049.1 690.5,1047.7 690.2,1046.2 C 694,1044.5 699.3,1043.8 700.2,1038.9 C 699.4,1030.4 695.3,1022.8 692,1015.1 C 689.9,1011.8 688.8,1008.1 689.3,1004.3 C 691.5,1004.5 694.8,1003.3 695.9,1006 C 699.1,1012.3 699.5,1019.9 704,1025.5 C 705.3,1025.1 707.4,1025.2 707.6,1023.6 C 709.1,1016.9 710.4,1009.9 713.9,1003.9 z"
     id="path2934"
     style="opacity:1;fill:#000000;stroke:#000000;stroke-width:0.09375" />
  <path
     d="M 327.7,1004.9 C 329.9,1004.1 332.3,1004.3 334.7,1004.4 C 336.2,1006.9 335.2,1009.8 334.3,1012.3 C 331.3,1012.7 328.2,1012.3 325.3,1013.2 C 323.1,1015.7 321.9,1019.2 322.3,1022.6 C 322.5,1027.9 323.4,1033.4 321.8,1038.6 C 319.6,1038.7 317.5,1038.7 315.3,1038.7 C 315.7,1033.2 314.8,1027.7 314.6,1022.3 C 315.6,1016.6 313.8,1010.9 315.5,1005.3 C 319.5,1005.1 323.7,1006.4 327.7,1004.9 z"
     id="path2936"
     style="opacity:1;fill:#000000;stroke:#000000;stroke-width:0.09375" />
  <path
     d="M 344.7,1006.8 C 350.3,1002.9 358.1,1004.1 363.6,1007.4 C 368,1011.5 369.1,1017.8 368.7,1023.5 C 361.8,1024.5 354.8,1024.5 347.8,1025 C 346.8,1029.1 350.6,1033.6 354.7,1033.7 C 357.5,1034 359,1031.4 361,1030 C 363.2,1028.8 365.7,1029.4 367.8,1030.4 C 368.1,1034.2 364.9,1036.8 362.1,1038.9 C 357.8,1040.9 352.9,1040.6 348.5,1039.3 C 342.4,1037.3 338.9,1031 338.3,1025 C 338.3,1018.5 339.1,1010.9 344.7,1006.8 M 350.3,1012.1 C 348.4,1013.1 346.7,1015.6 348,1017.7 C 349.4,1020.1 352.7,1019.2 355,1019.5 C 357.1,1019.3 360.5,1019.8 361,1017 C 360.6,1015.1 360.1,1012.5 357.9,1011.8 C 355.4,1011.4 352.7,1011.1 350.3,1012.1 z"
     id="path2938"
     style="opacity:1;fill:#000000;stroke:#000000;stroke-width:0.09375" />
  <path
     d="M 387.1,1007.7 C 390.6,1007.4 393.2,1003.8 396.9,1004.3 C 400.5,1004 403.4,1006.4 406.2,1008.2 C 409.4,1006.7 412.2,1003.9 416,1004.3 C 418.4,1004.4 421.3,1004 423.2,1005.8 C 425.2,1008 426.7,1010.9 426.7,1014 C 426.7,1021.9 426.6,1029.8 426.7,1037.7 C 424.1,1039 421.2,1039 418.5,1038.2 C 420.3,1032.3 419,1026 419.4,1020 C 419.3,1017.4 420,1014.2 417.9,1012.1 C 415.3,1009.2 410.7,1011.1 408.6,1013.7 C 406.8,1018.3 405.6,1023.4 406.3,1028.4 C 406.6,1031.8 407.2,1035.5 405.7,1038.8 C 403.7,1038.8 401.6,1038.7 399.5,1038.5 C 398.8,1031.7 399.6,1024.8 399.3,1018 C 399.1,1014.8 397,1011.7 394,1010.8 C 390.8,1011.3 386.9,1012.3 385.5,1015.5 C 385.2,1023.2 386.4,1031 384.3,1038.5 C 382.5,1038.7 380.6,1038.6 378.8,1038.3 C 377.3,1034.2 377.1,1029.9 377.7,1025.6 C 378.8,1018.9 378,1012 378.4,1005.2 C 381.6,1004.8 384.4,1006.1 387.1,1007.7 z"
     id="path2940"
     style="opacity:1;fill:#000000;stroke:#000000;stroke-width:0.09375" />
  <path
     d="M 443.5,1004.6 C 448.2,1004.1 452.9,1004.1 457.6,1004.6 C 460.3,1005.8 463.1,1007.7 464.5,1010.4 C 464.7,1019.5 463.9,1028.8 465.8,1037.8 C 462.8,1040 459.4,1037.7 456.2,1037.3 C 453.1,1038 450.3,1039.9 447,1039.7 C 442.9,1040 438.6,1038.2 436.5,1034.5 C 436.2,1031 435.8,1027.2 436.9,1023.8 C 440.9,1019.4 447.3,1019 452.8,1018 C 456.1,1017.8 458.1,1012.7 454.8,1011 C 450.3,1009.2 446.1,1011.6 442.9,1014.6 C 441.1,1014.2 439.3,1013.7 437.5,1013.2 C 436.7,1009.3 440.9,1006.8 443.5,1004.6 M 449.3,1024 C 447.3,1024.7 444.6,1024.9 443.6,1027.1 C 443.4,1030 445.6,1032.7 448.3,1033.7 C 453.4,1034.3 458.7,1029.2 456.9,1024.1 C 454.5,1023 451.8,1023.5 449.3,1024 z"
     id="path2942"
     style="opacity:1;fill:#000000;stroke:#000000;stroke-width:0.09375" />
  <path
     d="M 493.5,1009.1 C 493.5,1007.2 494,1004.4 496.3,1004.3 C 499,1003.8 501.1,1005.8 503.2,1007.2 C 507.1,1004.8 511.8,1003.3 516.3,1004.7 C 518.6,1006 520.6,1007.7 522,1009.8 C 524.1,1016 523.2,1022.6 523.6,1029 C 523.7,1031.4 524,1033.9 523.3,1036.3 C 522,1038.3 519.3,1037.5 517.3,1037.7 C 515.9,1034.3 517.6,1030.6 517,1027.1 C 516.2,1022.8 516.6,1018.4 516.1,1014.1 C 514.6,1011 510.8,1008.4 507.3,1010.1 C 502.9,1011.6 501.1,1016.7 501.3,1021 C 501.6,1026.4 501.8,1031.9 501.3,1037.3 C 498.8,1038.4 496.1,1038.7 493.4,1038.8 C 493.4,1028.9 493.4,1019 493.5,1009.1 z"
     id="path2944"
     style="opacity:1;fill:#000000;stroke:#000000;stroke-width:0.09375" />
  <path
     d="M 158.5,1005.5 C 161.1,1005.6 165.3,1004.2 166.4,1007.5 C 167.9,1013.3 170.2,1018.9 171.4,1024.8 C 171.8,1024.9 172.6,1025.3 173,1025.4 C 177.5,1020.6 176,1013.6 177.9,1007.8 C 179.6,1005.4 182.8,1005 185.5,1005.5 C 187.3,1006.3 188.6,1008.1 188.5,1010.1 C 188.9,1015.2 190,1020.4 193,1024.7 C 194.3,1024 195.4,1023.1 195.8,1021.7 C 197.6,1016.7 198.1,1011.4 199.6,1006.4 C 202,1006.3 204.4,1006.2 206.8,1006.3 C 206.9,1011.3 205.2,1016.1 203.7,1020.8 C 202,1027 200.2,1033.1 198.1,1039.2 C 195.2,1039.6 191.3,1040.7 189.3,1037.7 C 186.3,1033.2 186.6,1027.4 184.3,1022.6 C 183.7,1022.3 182.5,1021.7 181.9,1021.4 C 179.5,1027.1 179.1,1033.6 176.1,1039.1 C 173.5,1040.2 170.6,1039.5 167.8,1039.3 C 165.7,1033.4 164.2,1027.2 161.8,1021.3 C 159.8,1016.3 158.6,1011 158.5,1005.5 z"
     id="path2946"
     style="opacity:1;fill:#000000;stroke:#000000;stroke-width:0.09375" />
  <path
     d="M 213.4,1006.3 C 215.5,1005.5 218,1004.8 220.2,1005.8 C 222.2,1008 222.2,1011.3 222.5,1014.1 C 222.7,1022.6 222.5,1031.1 222.6,1039.6 C 219.5,1039.7 216.5,1039.7 213.4,1039.6 C 213.4,1028.5 213.4,1017.4 213.4,1006.3 z"
     id="path2948"
     style="opacity:1;fill:#000000;stroke:#000000;stroke-width:0.09375" />
  <path
     d="M 475.4,1005.2 C 477.4,1005.2 479.3,1005.3 481.3,1005.5 C 483.3,1016.1 482.7,1026.9 482.5,1037.5 C 480.2,1037.8 477.8,1037.8 475.5,1037.5 C 475.2,1026.8 475.4,1016 475.4,1005.2 z"
     id="path2950"
     style="opacity:1;fill:#000000;stroke:#000000;stroke-width:0.09375" />
  <path
     d="M 535.6,1005.5 C 537.7,1005.4 540.8,1004.5 541.8,1007.1 C 543.3,1010.2 542.4,1013.7 542.7,1017 C 542.4,1023.2 543,1029.4 542.5,1035.6 C 541.8,1038.3 538.4,1037.6 536.3,1037.8 C 534.7,1034.4 535.5,1030.6 535.4,1027 C 535.6,1019.8 534.9,1012.6 535.6,1005.5 z"
     id="path2952"
     style="opacity:1;fill:#000000;stroke:#000000;stroke-width:0.09375" />
  <path
     d="M 664,1010 C 668.2,1006.9 674.7,1010 675.6,1015 C 673.5,1018 669.6,1017.4 666.4,1017.6 C 664.3,1017.8 661.3,1017.3 660.6,1014.9 C 660,1012.5 662.4,1011.1 664,1010 z"
     id="path2954"
     style="opacity:1;fill:#ffff00;stroke:#ffff00;stroke-width:0.09375" />
  <path
     d="M 734.7,1015.1 C 736.2,1010.7 741,1007.2 745.7,1009.1 C 748.5,1009.7 750.5,1013 748.9,1015.7 C 745.8,1017.9 741.6,1017.5 738,1017.3 C 736.5,1017.3 735.4,1016.2 734.7,1015.1 z"
     id="path2956"
     style="opacity:1;fill:#ffff00;stroke:#ffff00;stroke-width:0.09375" />
  <path
     d="M 606.4,1010.2 C 610.1,1008.4 615.2,1010.8 616.4,1014.7 C 618.9,1020.5 616.9,1028.5 610.9,1031.2 C 605.2,1032.8 601.7,1026.6 600.7,1021.9 C 600.6,1017.5 602.2,1012.4 606.4,1010.2 z"
     id="path2958"
     style="opacity:1;fill:#ffff00;stroke:#ffff00;stroke-width:0.09375" />
  <path
     d="M 350.3,1012.1 C 352.7,1011.1 355.4,1011.4 357.9,1011.8 C 360.1,1012.5 360.6,1015.1 361,1017 C 360.5,1019.8 357.1,1019.3 355,1019.5 C 352.7,1019.2 349.4,1020.1 348,1017.7 C 346.7,1015.6 348.4,1013.1 350.3,1012.1 z"
     id="path2960"
     style="opacity:1;fill:#ffff00;stroke:#ffff00;stroke-width:0.09375" />
  <path
     d="M 449.3,1024 C 451.8,1023.5 454.5,1023 456.9,1024.1 C 458.7,1029.2 453.4,1034.3 448.3,1033.7 C 445.6,1032.7 443.4,1030 443.6,1027.1 C 444.6,1024.9 447.3,1024.7 449.3,1024 z"
     id="path2962"
     style="opacity:1;fill:#ffff00;stroke:#ffff00;stroke-width:0.09375" />
</svg>
